<svg width="27" viewBox="0 0 32 32" fill="none" xmlns="http://www.w3.org/2000/svg">
<path d="M16 2.66666C23.3637 2.66666 29.3333 8.63619 29.3333 16C29.3333 23.3637 23.3637 29.3333 16 29.3333C8.63616 29.3333 2.66663 23.3637 2.66663 16C2.66663 8.63619 8.63616 2.66666 16 2.66666ZM20.7138 11.1751L14.1141 17.7748L11.2857 14.9464C10.765 14.4257 9.9208 14.4257 9.40009 14.9464C8.8794 15.4671 8.8794 16.3113 9.40009 16.832L13.0771 20.5089C13.6498 21.0817 14.5785 21.0817 15.1513 20.5089L22.5994 13.0607C23.1201 12.5401 23.1201 11.6958 22.5994 11.1751C22.0788 10.6544 21.2345 10.6544 20.7138 11.1751Z" fill="#2E51E8"/>
</svg>
