<svg width="1024" height="576" viewBox="0 0 1024 576" fill="none" xmlns="http://www.w3.org/2000/svg">
<rect width="1024" height="576" fill="#8DAEFD"/>
<path opacity="0.18" d="M649.077 126.32C665.947 147.098 676.453 172.933 690.993 195.63C701.75 212.59 714.873 227.775 725.81 244.663C747.61 278.296 760.769 319.298 758.367 360.264C755.965 401.229 736.853 441.675 704.995 464.103C685.435 477.89 662.29 484.434 639.27 488.683C561.767 503.025 478.347 491.982 412.121 446.247C400.754 438.395 389.872 429.538 377.538 423.586C345.859 408.275 304.767 411.825 281.801 383.714C267.979 366.79 264.931 342.587 265.397 320.015C265.953 292.908 271.26 264.438 287.771 244.107C309.285 217.448 344.424 210.313 373.504 193.909C401.848 178.006 424.706 152.997 449.053 130.658C507.624 76.8917 591.886 55.88 649.077 126.32Z" fill="#567CD9"/>
<path d="M368.071 348.825C368.067 350.484 368.405 352.126 369.061 353.65C369.718 355.173 370.681 356.546 371.89 357.682C373.959 359.648 376.631 360.861 379.473 361.124C380.004 361.169 380.538 361.169 381.069 361.124L470.118 359.331C473.532 359.294 476.797 357.927 479.217 355.519C481.638 353.112 483.024 349.855 483.08 346.441C483.086 344.782 482.754 343.14 482.104 341.614C481.453 340.088 480.498 338.711 479.297 337.566C476.825 335.216 473.529 333.929 470.118 333.981H467.088C467.715 331.782 468.034 329.508 468.038 327.222C468.043 323.955 467.381 320.72 466.093 317.718C464.804 314.715 462.916 312.007 460.544 309.76C458.451 307.758 456.024 306.138 453.373 304.973C449.938 303.476 446.219 302.742 442.473 302.822L434.907 302.983C430.2 303.079 425.606 304.438 421.604 306.916C417.602 309.395 414.339 312.904 412.156 317.075C409.975 316.037 407.579 315.527 405.164 315.587H403.21C399.157 315.628 395.28 317.249 392.404 320.105C389.528 322.961 387.88 326.827 387.81 330.879V331.614C387.811 333.011 388.017 334.4 388.419 335.738L381.051 335.881C377.629 335.927 374.36 337.305 371.936 339.721C369.513 342.138 368.127 345.404 368.071 348.825Z" fill="#FCFCFE"/>
<path d="M379.473 361.124C380.004 361.169 380.538 361.169 381.069 361.124L470.118 359.331C473.532 359.294 476.797 357.927 479.217 355.519C481.638 353.112 483.024 349.855 483.08 346.441C483.086 344.782 482.754 343.14 482.104 341.614C481.453 340.088 480.498 338.711 479.297 337.567C482.883 359.564 459.845 356.409 459.845 356.409H401.991L379.473 361.124Z" fill="#DCDEDF"/>
<path d="M568.597 474C505.684 474 454.682 427.934 454.682 371.11C454.682 314.286 505.684 268.22 568.597 268.22C631.511 268.22 682.513 314.286 682.513 371.11C682.513 427.934 631.511 474 568.597 474Z" fill="#799DF2"/>
<path d="M427.162 354.06C427.132 377.947 434.907 401.19 449.303 420.251L449.536 420.574C465.312 441.365 487.964 455.872 513.448 461.503C538.932 467.134 565.588 463.522 588.655 451.314C611.722 439.105 629.699 419.094 639.373 394.855C649.048 370.615 649.791 343.726 641.47 318.99C633.149 294.253 616.305 273.28 593.948 259.816C571.59 246.352 545.174 241.274 519.418 245.488C493.662 249.703 470.243 262.937 453.343 282.825C436.444 302.713 427.164 327.962 427.162 354.06Z" fill="#667FE6"/>
<path d="M572.595 299.935C578.637 302.427 585.306 303.019 591.509 305.063C597.713 307.107 603.934 311.23 605.529 317.613C606.354 320.822 605.924 324.389 607.501 327.294C609.599 331.202 614.511 332.672 617.487 335.899C623.153 342.138 619.423 352.841 612.503 357.664C605.583 362.487 596.744 363.222 588.462 364.638C586.195 364.819 584.034 365.674 582.258 367.094C577.436 371.702 582.778 380.038 580.735 386.385C579.587 389.97 576.199 392.427 574.657 395.869C571.699 402.43 576.181 409.673 579.139 416.235C584.475 428.206 584.957 441.78 580.484 454.099C580.69 454.397 580.917 454.678 581.165 454.942C592.963 449.765 603.769 442.569 613.095 433.679C622.184 420.932 629.374 407.038 628.621 391.763C628.208 383.48 625.447 375.484 624.927 367.238C624.067 353.845 628.907 339.306 622.346 327.616C618.76 321.144 611.768 314.045 615.677 307.77C622.579 308.774 630.019 308.935 636.348 306.533C628.582 290.355 616.979 276.321 602.549 265.653C588.119 254.986 571.299 248.007 553.556 245.326C546.743 264.796 552.157 291.33 572.595 299.935Z" fill="#4863BE"/>
<path d="M427.162 354.06C427.155 361.021 427.809 367.967 429.116 374.803C432.04 377.18 434.778 379.775 437.31 382.566C446.005 392.749 447.887 406.877 449.304 420.215C449.304 420.502 449.304 420.789 449.393 421.058C449.393 420.879 449.393 420.717 449.537 420.538C450.228 417.112 451.721 413.899 453.893 411.161C456.367 408.49 460.76 407.164 463.772 409.261C465.206 405.675 466.646 402.12 468.092 398.594C477.056 398.594 486.307 398.594 494.733 395.421C503.16 392.247 510.134 386.17 516.875 380.235C515.99 369.953 516.182 359.606 517.448 349.363C491.263 346.521 467.042 334.133 449.411 314.565C465.179 313.779 480.812 317.812 494.231 326.128C497.1 327.921 500.004 329.929 503.357 330.216C505.481 330.269 507.6 329.978 509.632 329.355L531.307 323.852C534.014 309.903 524.351 295.902 511.927 288.999C502.604 283.836 491.291 284.84 482.345 280.322C476.214 277.238 474.421 271.842 469.06 267.88H468.953C455.931 278.156 445.406 291.249 438.168 306.175C430.93 321.101 427.168 337.472 427.162 354.06Z" fill="#4863BE"/>
<path d="M503.142 331.776C503.787 333.891 504.397 336.365 503.142 338.14C502.525 338.899 501.713 339.475 500.793 339.807C499.723 340.319 498.531 340.524 497.351 340.4C496.171 340.277 495.048 339.83 494.106 339.108C493.122 338.032 492.425 336.725 492.08 335.307C490.404 330.163 489.204 324.876 488.495 319.513C488.36 319.02 488.36 318.5 488.495 318.007C488.775 317.49 489.224 317.085 489.768 316.859C492.618 315.336 497.082 314.116 498.732 317.487C500.757 321.826 501.708 327.186 503.142 331.776Z" fill="#FFCFC4"/>
<path d="M494.518 334.232C493.916 334.149 493.303 334.204 492.725 334.393C492.332 334.611 491.989 334.911 491.721 335.272L485.536 342.21C484.335 343.555 483.08 345.401 483.922 346.997C484.219 347.441 484.612 347.813 485.071 348.086C485.53 348.359 486.044 348.526 486.576 348.574C489.572 348.848 492.583 348.257 495.253 346.871C497.153 346.046 499.036 345.078 500.883 344.182C502.255 343.559 503.454 342.611 504.379 341.421C505.795 339.27 506.171 334.106 503.697 332.457C502.424 331.65 501.313 332.224 500.112 332.78C498.394 333.715 496.473 334.214 494.518 334.232Z" fill="#E8EAFF"/>
<path d="M468.863 355.405C468.815 355.804 468.858 356.208 468.989 356.588C469.202 356.957 469.512 357.261 469.885 357.467C471.061 358.276 472.439 358.742 473.865 358.811C474.577 358.838 475.286 358.7 475.936 358.408C476.586 358.115 477.159 357.677 477.612 357.126C478.272 356.083 478.672 354.896 478.777 353.666C479.303 351.021 479.561 348.331 479.548 345.634C479.58 345.476 479.576 345.312 479.538 345.156C479.5 344.999 479.428 344.852 479.327 344.726C479.226 344.599 479.099 344.497 478.955 344.424C478.81 344.352 478.652 344.312 478.49 344.308C476.267 343.841 471.839 342.676 470.71 345.401C469.559 348.614 468.935 351.993 468.863 355.405Z" fill="#FFCFC4"/>
<path d="M459.451 355.136C457.541 355.239 455.653 355.601 453.84 356.212C452.939 356.524 452.111 357.017 451.408 357.662C450.705 358.306 450.141 359.088 449.752 359.959C449.39 360.811 449.346 361.766 449.627 362.648C450.246 363.958 451.333 364.987 452.675 365.535C459.046 368.921 466.235 370.467 473.435 369.999C475.283 370.073 477.088 369.431 478.473 368.206C479.473 366.725 479.941 364.949 479.8 363.168L480.051 354.742C478.428 354.814 476.845 355.262 475.425 356.051C472.772 356.947 471.732 354.796 469.545 354.258C466.694 353.594 462.356 354.849 459.451 355.136Z" fill="#E8EAFF"/>
<path opacity="0.2" d="M561.588 263.846C565.444 263.511 569.325 263.571 573.169 264.025C573.672 264.051 574.16 264.205 574.586 264.473C574.831 264.704 575.027 264.982 575.162 265.29C575.298 265.598 575.37 265.93 575.374 266.266C575.912 271.465 571.789 275.983 567.343 278.726C555.313 286.184 540.146 285.898 526.861 290.774C525.593 291.11 524.468 291.845 523.652 292.872C523.098 293.984 522.827 295.215 522.863 296.457C522.271 303.467 518.381 309.778 517.09 316.68C515.799 323.582 517.18 330.807 516.122 337.764C511.765 333.12 504.343 332.385 499.987 327.796C495.899 323.565 495.092 317.254 494.483 311.409L492.833 295.382C492.528 294.226 492.654 292.998 493.189 291.929C493.723 290.859 494.63 290.022 495.738 289.573C515.351 276.898 538.335 265.854 561.588 263.846Z" fill="black"/>
<path d="M482.273 262.232C480.461 262.596 478.782 263.445 477.415 264.689C476.013 266.641 475.375 269.039 475.622 271.43C475.664 288.441 478.881 305.295 485.106 321.126C485.164 321.683 485.358 322.216 485.671 322.681C485.983 323.145 486.405 323.525 486.898 323.789C487.392 324.052 487.943 324.191 488.502 324.193C489.062 324.194 489.613 324.058 490.108 323.798C493.836 322.791 497.51 321.595 501.116 320.212L496.239 287.941C496.007 287.046 496.057 286.1 496.383 285.234C496.743 284.62 497.248 284.103 497.853 283.728C503.415 279.682 509.29 276.085 515.422 272.971C520.317 270.497 525.928 267.593 527.255 262.358C527.53 261.463 527.586 260.516 527.417 259.595C527.249 258.675 526.861 257.808 526.287 257.069C525.511 256.307 524.599 255.699 523.598 255.276C520.353 253.681 516.265 251.691 512.536 252.013C509.542 252.318 508.395 254.039 505.903 255.312C498.982 258.754 489.785 260.045 482.273 262.232Z" fill="#282328"/>
<path d="M515.584 210.904C513.182 217.52 511.998 224.53 509.883 231.217C509.419 232.989 508.589 234.645 507.444 236.075C505.924 237.534 504.081 238.615 502.066 239.231C499.257 240.318 496.401 241.269 493.496 242.081C491.56 242.601 489.247 243.498 489.032 245.47C488.987 246.127 489.123 246.785 489.427 247.37C490.176 248.706 491.255 249.827 492.56 250.628C493.866 251.428 495.355 251.88 496.885 251.942C499.939 252.024 502.981 251.525 505.849 250.472C508.46 249.943 510.856 248.652 512.733 246.761C513.8 245.188 514.549 243.422 514.938 241.561C517.881 231.118 521.963 221.029 527.112 211.478C528.652 208.956 529.857 206.244 530.697 203.41C531.881 198.462 531.898 186.737 526.789 191.04C522.665 194.518 517.395 205.992 515.584 210.904Z" fill="#FFCFC4"/>
<path d="M535.144 261.605C532.121 260.434 529.181 259.062 526.341 257.499C515.584 251.547 524.387 248.625 527.972 241.472C530.536 236.398 529.496 230.32 528.17 224.816C525.821 215.135 522.684 205.095 524.942 195.432C525.225 193.864 525.836 192.373 526.735 191.058C527.393 190.242 528.152 189.513 528.994 188.888C531.265 186.927 533.879 185.401 536.703 184.389C542.082 182.596 548.177 183.904 553.287 186.468C573.366 196.544 577.651 221.984 576.844 242.332C576.629 247.98 575.751 253.95 572.111 258.27C568.472 262.591 563.327 264.24 558.056 264.886C550.265 265.682 542.398 264.556 535.144 261.605Z" fill="white"/>
<path d="M565.084 250.095C564.922 252.005 564.307 253.849 563.291 255.474C561.498 258.001 558.199 258.934 555.169 259.669L541.526 263.039C539.863 263.543 538.136 263.803 536.399 263.81C532.67 263.631 529.46 261.246 526.502 258.952C525.746 258.434 525.09 257.784 524.566 257.033C532.096 256.316 539.608 255.563 547.102 254.47C551.512 253.824 556.173 252.928 559.418 249.898C561.095 248.242 562.37 246.224 563.147 244C563.685 242.619 563.936 239.105 565.496 238.8C565.889 242.566 565.75 246.368 565.084 250.095Z" fill="#EFEFEF"/>
<path d="M538.155 200.147C538.156 200.713 538.382 201.254 538.783 201.653C539.155 201.873 539.591 201.961 540.02 201.904C541.425 201.838 542.799 201.472 544.051 200.83C545.302 200.188 546.401 199.286 547.275 198.183C548.148 197.081 548.775 195.804 549.113 194.439C549.451 193.073 549.492 191.651 549.235 190.269C548.912 188.476 548.141 186.934 547.657 185.249C546.707 181.878 546.868 178.078 544.735 175.299C542.888 179.525 540.78 183.632 538.424 187.598C537.822 188.386 537.403 189.299 537.198 190.27C536.994 191.24 537.008 192.245 537.241 193.209L538.155 200.147Z" fill="#FFCFC4"/>
<path d="M537.098 191.47L537.904 196.849C537.904 196.849 547.137 192.277 545.936 183.797C544.735 175.317 537.098 191.47 537.098 191.47Z" fill="#ECBEB3"/>
<path d="M526.305 186.235C526.779 187.958 527.782 189.489 529.174 190.61C529.837 191.06 530.579 191.382 531.361 191.56C534.106 192.093 536.949 191.743 539.484 190.561C542.018 189.379 544.114 187.426 545.47 184.98C546.749 182.503 547.478 179.779 547.608 176.995C547.738 174.21 547.265 171.43 546.223 168.845C545.37 166.009 543.439 163.621 540.845 162.194C539.426 161.634 537.892 161.435 536.378 161.613C534.863 161.792 533.417 162.342 532.168 163.216C528.771 165.587 526.147 168.903 524.62 172.753C523.311 176.68 524.96 182.488 526.305 186.235Z" fill="#FFCFC4"/>
<path d="M485.77 284.768C483.472 287.694 481.657 290.968 480.392 294.467C473.341 311.47 468.759 329.395 466.784 347.696C472.541 348.413 478.364 348.413 484.121 347.696C484.571 334.776 486.563 321.956 490.055 309.509C490.672 306.83 491.732 304.273 493.192 301.943C495.756 298.232 499.969 296.081 503.949 294.073C513.262 289.547 522.996 285.944 533.011 283.316C537.242 282.151 541.509 281.075 545.668 279.73C549.164 278.547 558.971 274.208 561.803 271.86C563.288 270.734 564.529 269.32 565.454 267.703C566.378 266.085 566.966 264.298 567.182 262.447C567.182 263.38 539.859 265.244 537.905 265.029C531.325 264.33 523.562 260.565 517.073 263.236C511.999 265.316 507.355 269.655 502.73 272.649C497.118 276.163 490.27 279.569 485.77 284.768Z" fill="#473F47"/>
<path d="M515.709 283.388L549.056 267.091L509.954 250.507L476.59 265.083L515.709 283.388Z" fill="#647EEF"/>
<path d="M566.5 206.871C566.5 207.498 566.661 208.108 566.733 208.664C567.719 217.843 566.822 226.843 566.482 235.968C566.267 241.616 565.532 252.372 559.526 255.259C548.303 260.637 526.645 258.593 526.645 258.593C524.134 258.191 521.568 258.294 519.098 258.898C517.753 259.311 516.516 260.01 515.207 260.512C510.474 262.305 505.185 261.408 500.201 260.512C499.343 260.41 498.513 260.135 497.763 259.705C496.893 258.932 496.363 257.849 496.286 256.688C496.208 255.527 496.591 254.383 497.351 253.502C498.969 251.802 501.073 250.643 503.375 250.185C509.669 248.131 516.411 247.87 522.845 249.432C523.667 249.709 524.505 249.937 525.355 250.113C526.35 250.275 527.358 250.347 528.367 250.329H536.004C544.789 250.329 553.072 250.436 554.398 240.163C554.888 236.359 554.984 232.514 554.685 228.689C554.165 221.787 552.354 214.938 552.731 208.036C552.754 205.847 553.301 203.695 554.327 201.761C554.846 200.801 555.604 199.99 556.527 199.406C557.45 198.822 558.507 198.485 559.597 198.427C560.727 198.511 561.815 198.885 562.757 199.513C563.699 200.142 564.464 201.002 564.976 202.012C565.77 203.528 566.286 205.173 566.5 206.871Z" fill="#FFCFC4"/>
<path d="M462.857 232.203L509.47 255.922L515.709 283.388L476.59 265.083L462.857 232.203Z" fill="#526AD6"/>
<path d="M524.01 176.339C524.061 174.632 524.693 172.994 525.802 171.696C526.366 171.042 527.032 170.485 527.775 170.046C528.814 169.437 529.065 169.383 529.747 170.369C530.625 171.642 530.912 173.13 531.719 174.457C532.602 175.928 533.833 177.16 535.304 178.042C536.958 179.069 538.882 179.574 540.826 179.495C541.599 179.378 542.384 179.378 543.157 179.495C543.416 179.544 543.662 179.649 543.876 179.804C544.09 179.959 544.266 180.16 544.394 180.391C544.579 181.062 544.646 181.759 544.591 182.453C544.752 184.246 546.527 185.518 547.513 187.078C548.499 188.638 548.786 190.951 549.97 192.618C550.189 192.952 550.492 193.224 550.848 193.407C551.691 193.765 552.641 193.299 553.519 193.138C556.119 192.69 558.217 195.11 560.44 196.58C564.904 199.52 570.748 198.767 576.019 197.889C577.633 197.694 579.206 197.246 580.68 196.562C582.273 195.622 583.687 194.408 584.858 192.977C586.812 190.825 588.748 188.638 590.666 186.451C591.379 185.75 591.946 184.916 592.334 183.995C592.539 183.352 592.594 182.671 592.495 182.005C592.32 180.76 591.951 179.55 591.402 178.419C590.003 175.281 588.372 171.875 585.216 170.459C582.061 169.042 578.332 170.1 574.854 169.742C574.43 169.741 574.017 169.609 573.671 169.365C573.394 169.052 573.197 168.677 573.097 168.272C571.645 163.449 569.834 158.214 565.495 155.722C562.152 154.116 558.383 153.62 554.738 154.306C551.13 154.987 547.448 155.198 543.784 154.933C541.992 154.646 540.199 154.055 538.406 153.696C534.214 152.764 529.825 153.402 526.071 155.489C524.219 156.591 522.669 158.136 521.561 159.986C520.454 161.835 519.823 163.931 519.725 166.084C519.797 166.925 519.797 167.771 519.725 168.612C519.599 169.401 519.259 170.172 519.133 170.961C519.06 171.643 519.132 172.332 519.344 172.984C519.556 173.636 519.904 174.236 520.364 174.744C520.825 175.252 521.388 175.657 522.016 175.932C522.645 176.207 523.324 176.346 524.01 176.339Z" fill="#BE6B43"/>
<path d="M568.132 211.962C568.685 217.036 568.745 222.152 568.311 227.237C568.333 227.678 568.22 228.116 567.988 228.492C567.607 228.909 567.082 229.166 566.518 229.209C563.615 229.75 560.669 230.032 557.715 230.052C557.301 230.184 556.863 230.224 556.431 230.167C556 230.111 555.586 229.96 555.22 229.725C554.854 229.491 554.543 229.178 554.312 228.81C554.08 228.442 553.932 228.027 553.879 227.596C552.265 220.855 550.67 214.114 549.451 207.283C548.967 204.54 548.626 201.456 550.275 199.233C552.66 196.006 559.096 195.648 562.198 197.996C565.945 200.883 567.54 207.624 568.132 211.962Z" fill="white"/>
<path d="M517.395 203.357L512.322 215.512C512.071 215.985 511.97 216.523 512.035 217.054C512.164 217.49 512.412 217.881 512.752 218.183C515.23 220.804 518.172 222.944 521.429 224.494C524.432 221.811 526.87 218.557 528.6 214.921C530.286 210.6 529.909 205.795 529.407 201.188C529.102 198.265 529.21 188.871 524.244 192.51C520.784 195.002 518.955 199.61 517.395 203.357Z" fill="white"/>
<path d="M609.169 317.38C609.167 319.037 609.503 320.677 610.157 322.2C610.81 323.722 611.767 325.096 612.97 326.236C615.041 328.199 617.711 329.411 620.553 329.678C621.085 329.706 621.617 329.706 622.149 329.678L711.198 327.886C714.616 327.849 717.886 326.479 720.31 324.068C722.734 321.658 724.122 318.396 724.178 314.977C724.179 313.32 723.843 311.68 723.19 310.158C722.536 308.635 721.579 307.261 720.377 306.121C719.158 304.949 717.72 304.029 716.145 303.414C714.569 302.798 712.888 302.5 711.198 302.535H708.168C708.803 300.333 709.123 298.051 709.118 295.758C709.124 292.491 708.463 289.257 707.174 286.254C705.885 283.251 703.997 280.543 701.624 278.296C699.534 276.296 697.106 274.682 694.453 273.528C691.018 272.029 687.299 271.295 683.553 271.376L675.987 271.538C671.309 271.625 666.74 272.956 662.747 275.395C658.755 277.834 655.484 281.292 653.272 285.414C651.085 284.393 648.693 283.884 646.28 283.926H644.326C640.274 283.977 636.402 285.604 633.53 288.462C630.658 291.321 629.013 295.185 628.943 299.237V299.972C628.936 301.362 629.136 302.745 629.535 304.077L622.167 304.238C618.705 304.272 615.396 305.671 612.962 308.133C610.527 310.594 609.164 313.918 609.169 317.38Z" fill="#FCFCFE"/>
<path d="M620.553 329.678C621.085 329.706 621.617 329.706 622.149 329.678L711.198 327.885C714.616 327.849 717.886 326.479 720.31 324.068C722.734 321.657 724.122 318.396 724.178 314.977C724.179 313.32 723.843 311.68 723.19 310.157C722.536 308.635 721.579 307.261 720.377 306.121C723.873 328.101 700.925 324.963 700.925 324.963H643.071L620.553 329.678Z" fill="#DCDEDF"/>
<path d="M701.714 305.188L708.168 302.732C708.803 300.53 709.123 298.248 709.118 295.955C709.124 292.688 708.463 289.454 707.174 286.451C705.885 283.448 703.997 280.74 701.624 278.493C699.534 276.493 697.106 274.879 694.453 273.725C712.327 289.071 701.714 305.188 701.714 305.188Z" fill="#DCDEDF"/>
<path d="M374.274 213.181C374.273 214.84 374.611 216.482 375.267 218.005C375.924 219.528 376.886 220.9 378.093 222.038C380.172 224.001 382.848 225.213 385.694 225.48C386.225 225.526 386.759 225.526 387.29 225.48L476.321 223.687C479.711 223.642 482.951 222.285 485.361 219.902C487.771 217.518 489.164 214.293 489.247 210.905C489.266 209.231 488.94 207.571 488.289 206.029C487.638 204.487 486.677 203.095 485.464 201.941C482.984 199.591 479.684 198.304 476.267 198.355H473.255C473.882 196.156 474.202 193.882 474.206 191.596C474.211 188.329 473.549 185.095 472.26 182.092C470.971 179.089 469.083 176.381 466.712 174.134C464.621 172.13 462.193 170.509 459.54 169.347C456.106 167.847 452.387 167.113 448.64 167.196L441.074 167.357C436.397 167.444 431.827 168.777 427.837 171.219C423.847 173.662 420.582 177.125 418.377 181.251C416.195 180.216 413.8 179.706 411.385 179.763H409.431C405.378 179.805 401.501 181.426 398.625 184.282C395.749 187.138 394.101 191.003 394.031 195.056V195.791C394.032 197.188 394.238 198.577 394.641 199.915L387.272 200.058C383.816 200.1 380.516 201.501 378.084 203.956C375.652 206.412 374.283 209.725 374.274 213.181Z" fill="#FCFCFE"/>
<path d="M385.676 225.48C386.207 225.526 386.741 225.526 387.272 225.48L476.303 223.687C479.696 223.646 482.94 222.292 485.354 219.908C487.769 217.524 489.164 214.296 489.247 210.904C489.266 209.231 488.94 207.571 488.289 206.029C487.638 204.487 486.677 203.095 485.464 201.94C489.05 223.938 466.012 220.783 466.012 220.783H408.158L385.676 225.48Z" fill="#DCDEDF"/>
<path d="M466.819 200.99L473.291 198.534C473.918 196.336 474.237 194.061 474.241 191.775C474.246 188.508 473.584 185.274 472.296 182.271C471.007 179.269 469.119 176.561 466.747 174.313C464.656 172.309 462.229 170.689 459.576 169.526C477.432 184.873 466.819 200.99 466.819 200.99Z" fill="#DCDEDF"/>
<path d="M543.032 179.53C543.292 179.579 543.537 179.685 543.751 179.84C543.965 179.995 544.142 180.195 544.269 180.426C544.454 181.097 544.521 181.795 544.467 182.488C544.628 184.281 546.403 185.554 547.389 187.114C548.375 188.673 548.662 190.986 549.845 192.653C550.065 192.988 550.367 193.26 550.724 193.442C551.566 193.801 552.516 193.335 553.395 193.173C555.994 192.725 558.092 195.145 560.315 196.615C564.779 199.556 570.624 198.803 575.895 197.924C577.553 197.731 579.17 197.271 580.681 196.562C582.274 195.622 583.688 194.408 584.859 192.976C586.813 190.825 588.749 188.637 590.667 186.45C591.38 185.75 591.947 184.915 592.335 183.994C592.54 183.352 592.595 182.671 592.496 182.004C591.66 181.499 590.792 181.05 589.897 180.659C587.148 179.184 583.936 178.831 580.932 179.673C578.53 180.606 576.827 182.739 574.765 184.263C571.89 186.276 568.392 187.201 564.898 186.873C561.403 186.544 558.139 184.984 555.69 182.47C554.786 181.28 553.725 180.218 552.534 179.315C550.401 178.149 546.062 178.329 543.032 179.53Z" fill="#8C4F30"/>
</svg>
