<svg width="1024" height="576" viewBox="0 0 1024 576" fill="none" xmlns="http://www.w3.org/2000/svg">
<rect width="1024" height="576" fill="#5C74E2"/>
<path d="M740.874 367.319C732.768 381.158 727.041 396.259 723.93 411.993C719.862 435.218 707.2 456.059 688.464 470.373C678.941 477.43 668.313 482.858 657.012 486.433C649.737 488.787 642.292 490.577 634.742 491.787H634.34C600.613 497.14 558.615 495.159 525.959 485.389C506.687 479.608 491.322 471.203 470.551 469.329C439.126 466.358 408.611 469.757 377.347 462.637C209.302 424.092 237.649 266.165 323.438 214.745C355.719 195.392 395.014 188.7 424.136 166.269C434.843 158.025 441.321 143.892 450.128 133.747C467.285 114.02 490.279 97.0492 514.931 88.2427C583.536 64.0183 653.8 107.756 705.193 149.647C803.055 229.521 765.688 324.705 740.874 367.319Z" fill="#778CE9"/>
<path d="M535.193 319.191V152.484H518.089L554.412 110.219L595.794 152.939H577.271V359.101L535.193 319.191Z" fill="#68E1FD"/>
<path d="M535.193 319.191V152.484H518.089L554.412 110.219L595.794 152.939H577.271V359.101L535.193 319.191Z" fill="#435BC7"/>
<path d="M503.849 322.831V203.396H486.718L523.068 161.157L564.423 203.851H545.9V323.902L503.849 322.831Z" fill="#E6EDFF"/>
<path d="M490.011 383.513V248.579H477.403L504.171 217.475L534.605 248.9H520.981V337.259L490.011 383.513Z" fill="#68E1FD"/>
<path d="M490.011 383.513V248.579H477.403L504.171 217.475L534.605 248.9H520.981V337.259L490.011 383.513Z" fill="#435BC7"/>
<path d="M688.437 470.373C678.915 477.43 668.286 482.857 656.986 486.433C649.711 488.787 642.265 490.577 634.715 491.786C629.362 487.102 623.286 481.08 619.431 478.108C619.003 477.787 618.628 477.493 618.253 477.252C606.984 469.623 593.386 464.671 581.1 458.863C574.944 455.945 568.975 452.706 562.925 449.574C555.538 445.533 547.861 442.044 539.959 439.135L538.621 438.68L537.603 438.332C532.281 436.949 527.28 434.539 522.881 431.239C518.492 427.411 515.975 421.951 513.245 416.838C509.043 408.968 507.597 398.663 499.273 395.424C495.498 393.979 494.24 389.348 493.919 385.386C493.165 373.819 493.767 362.204 495.713 350.776C497.194 339.57 498.702 328.354 500.236 317.13C500.335 315.746 500.717 314.397 501.36 313.168C502.319 311.885 503.716 310.999 505.285 310.678C506.855 310.357 508.487 310.624 509.872 311.428C512.584 313.163 514.506 315.893 515.226 319.03C518.117 329.229 513.54 340.846 517.903 350.428V350.616C519.211 353.069 520.791 355.368 522.614 357.468C527.967 364.106 533.321 370.852 539.183 376.794C542.214 380.4 546.123 383.165 550.532 384.824C552.735 385.627 555.14 385.685 557.379 384.989C559.618 384.293 561.567 382.881 562.925 380.97L563.3 380.301C563.944 378.389 564.174 376.362 563.976 374.355C563.777 372.348 563.155 370.405 562.149 368.657C558.944 362.88 555.159 357.445 550.853 352.436C548.425 349.368 546.334 346.047 544.616 342.532C542.014 336.78 540.9 330.465 541.378 324.17C541.329 321.266 542.273 318.433 544.054 316.139C546.089 314.025 550.238 313.249 551.817 315.711C561.266 330.058 563.38 342.264 578.905 354.711C583.108 358.057 595.207 371.762 599.73 374.653C613.569 383.513 621.144 399.118 630.7 412.528C640.256 425.939 651.498 437.021 662.821 448.29C667.719 452.117 682.013 462.664 688.437 470.373Z" fill="#FFBBAB"/>
<path d="M562.39 368.229C559.195 362.43 555.409 356.976 551.094 351.954C551.602 349.759 553.075 349.278 556.768 352.971C562.818 358.78 570.928 373.796 580.404 374.814C575.184 374.251 569.269 373.877 565.388 377.49C564.647 378.179 564.023 378.984 563.541 379.873C564.193 377.962 564.428 375.934 564.229 373.926C564.031 371.917 563.403 369.974 562.39 368.229Z" fill="url(#paint0_linear_1706_1956)"/>
<path d="M610.463 414.777C587.577 420.505 576.362 443.98 564.584 423.53C563.46 428.161 547.533 398.235 546.409 402.866C548.176 395.853 529.331 408.942 523.737 404.365C518.143 399.787 526.093 377.758 519.561 380.916C513.971 370.961 512.292 359.28 514.85 348.153L518.062 350.562C519.371 353.024 520.951 355.332 522.773 357.442C528.127 364.053 533.48 370.665 539.342 376.741C542.391 380.328 546.294 383.09 550.692 384.771C552.898 385.534 555.291 385.572 557.521 384.878C559.751 384.185 561.7 382.797 563.085 380.916C563.103 380.865 563.103 380.808 563.085 380.756C561.933 383.454 561.716 386.459 562.469 389.295C563.719 393.311 565.988 396.935 569.054 399.814C574.447 405.178 580.948 409.296 588.102 411.881C595.255 414.466 602.887 415.454 610.463 414.777Z" fill="url(#paint1_linear_1706_1956)"/>
<path d="M575.425 379.631C572.617 385.625 567.658 390.345 561.533 392.855C564.448 397.718 567.704 402.37 571.276 406.774C565.145 403.185 559.373 399.017 554.038 394.327C548.685 389.482 542.234 383.62 535.087 385.199C530.215 386.243 525.825 390.713 520.659 386.564C519.13 385.284 517.997 383.594 517.394 381.693C515.681 376.339 513.86 371.146 512.442 365.632C511.623 363.258 511.145 360.78 511.023 358.271C511.023 356.96 512.013 353.319 509.417 354.577C504.102 357.17 499.367 360.812 495.498 365.284C496.476 362.328 497.236 359.304 497.773 356.237C498.065 353.188 498.693 350.18 499.647 347.27L503.073 337.366C504.164 334.589 504.892 331.683 505.241 328.72C505.536 324.491 500.637 313.891 506.58 311.616C510.488 310.09 514.289 315.738 515.172 318.789C518.063 328.961 513.486 340.578 517.849 350.161C519.602 353.354 521.702 356.343 524.112 359.074C528.634 364.925 533.468 370.528 538.593 375.857C542.742 380.167 547.427 384.583 553.771 385.012C556.298 385.244 558.82 384.518 560.837 382.977C565.655 379.176 564.558 372.966 562.256 368.148C557.732 358.646 549.14 351.553 544.723 341.997C542.145 336.237 541.033 329.929 541.484 323.634C541.424 320.729 542.37 317.892 544.161 315.604C552.753 306.61 554.868 325.883 555.403 330.273C556.592 337.306 558.745 344.143 561.801 350.589C563.059 353.587 564.879 357.04 568.118 357.468L563.112 359.529C563.707 363.536 565.104 367.381 567.22 370.835C569.336 374.289 572.126 377.281 575.425 379.631Z" fill="url(#paint2_linear_1706_1956)"/>
<path d="M562.282 270.528C561.707 277.867 558.593 284.776 553.476 290.068C548.892 294.597 545.626 300.288 544.027 306.53C543.599 308.43 543.358 310.411 543.01 312.499H514.877C514.663 311.08 514.529 309.635 514.262 308.243C513.059 302.222 510.193 296.658 505.99 292.183C502.254 288.335 499.316 283.787 497.345 278.799C495.674 274.151 495.043 269.194 495.496 264.276C495.948 259.359 497.474 254.6 499.965 250.336C502.455 246.071 505.851 242.405 509.912 239.595C513.973 236.784 518.601 234.899 523.47 234.071C524.353 234.071 525.263 233.83 526.146 233.75C531.049 233.349 535.98 234.03 540.59 235.746C545.2 237.462 549.376 240.17 552.824 243.679C556.271 247.188 558.906 251.412 560.54 256.051C562.175 260.691 562.769 265.633 562.282 270.528Z" fill="white"/>
<path d="M556.768 270.528C556.192 277.861 553.089 284.767 547.988 290.068C543.386 294.583 540.117 300.279 538.54 306.53C538.084 308.43 537.87 310.411 537.522 312.499H514.877C514.663 311.08 514.529 309.635 514.262 308.243C513.059 302.222 510.193 296.658 505.99 292.183C502.254 288.335 499.316 283.787 497.345 278.799C495.674 274.151 495.043 269.194 495.496 264.276C495.948 259.359 497.474 254.6 499.965 250.336C502.455 246.071 505.851 242.405 509.912 239.595C513.973 236.784 518.601 234.899 523.47 234.071C524.353 234.071 525.263 233.83 526.146 233.75C530.584 234.122 534.903 235.373 538.853 237.43C542.803 239.486 546.304 242.308 549.154 245.73C552.003 249.153 554.144 253.107 555.451 257.364C556.758 261.622 557.206 266.096 556.768 270.528Z" fill="url(#paint3_linear_1706_1956)"/>
<path d="M543.652 312.392H515.761C513.736 312.392 512.094 314.034 512.094 316.059C512.094 318.085 513.736 319.726 515.761 319.726H543.652C545.678 319.726 547.32 318.085 547.32 316.059C547.32 314.034 545.678 312.392 543.652 312.392Z" fill="#5E71C1"/>
<path d="M541.565 318.549H516.591C514.787 318.549 513.325 320.011 513.325 321.814V321.841C513.325 323.644 514.787 325.107 516.591 325.107H541.565C543.368 325.107 544.83 323.644 544.83 321.841V321.814C544.83 320.011 543.368 318.549 541.565 318.549Z" fill="#5567B4"/>
<path d="M539.905 323.902H518.25C516.683 323.902 515.413 325.172 515.413 326.739V326.766C515.413 328.333 516.683 329.603 518.25 329.603H539.905C541.472 329.603 542.743 328.333 542.743 326.766V326.739C542.743 325.172 541.472 323.902 539.905 323.902Z" fill="#495BA7"/>
<path d="M521.944 312.285C521.735 307.143 521.082 302.029 519.99 297.001C519.134 292.827 518.508 288.609 518.117 284.367C517.688 277.969 518.946 273.472 521.998 270.662C522.249 270.349 522.566 270.097 522.928 269.923C523.289 269.75 523.685 269.66 524.086 269.66C524.486 269.66 524.882 269.75 525.243 269.923C525.605 270.097 525.923 270.349 526.173 270.662L526.441 270.34C526.961 269.685 527.657 269.193 528.449 268.922C529.263 268.706 530.129 268.822 530.858 269.243C531.368 269.556 531.814 269.965 532.169 270.448C532.589 270.178 533.06 269.996 533.552 269.913C534.044 269.831 534.548 269.848 535.033 269.966C536.88 270.421 538.138 272.134 538.674 274.944C539.529 281.66 539.019 288.479 537.175 294.993C535.706 300.506 535.075 306.209 535.301 311.91L533.294 312.097C533.04 306.191 533.681 300.28 535.194 294.565C536.613 287.927 537.871 281.636 536.72 275.346C536.479 274.195 535.917 272.241 534.552 271.92C534.308 271.862 534.055 271.859 533.81 271.91C533.565 271.96 533.334 272.064 533.133 272.214C533.281 272.56 533.398 272.918 533.481 273.285C533.966 275.291 534.2 277.35 534.177 279.415C534.196 279.736 534.147 280.057 534.031 280.357C533.916 280.657 533.737 280.929 533.508 281.154C533.303 281.335 533.055 281.46 532.787 281.516C532.52 281.573 532.242 281.559 531.982 281.476C531.53 281.276 531.132 280.97 530.825 280.583C530.517 280.196 530.308 279.74 530.215 279.254C529.585 277.383 529.465 275.378 529.867 273.445C530.036 272.858 530.308 272.305 530.67 271.813C530.459 271.478 530.175 271.195 529.841 270.983C529.705 270.925 529.559 270.896 529.412 270.896C529.265 270.896 529.12 270.925 528.984 270.983C528.584 271.163 528.235 271.439 527.967 271.786C527.818 271.953 527.684 272.132 527.565 272.321C529.231 274.575 529.969 277.382 529.626 280.164C529.439 281.529 528.609 282.841 527.164 282.841C526.667 282.777 526.198 282.576 525.81 282.258C525.422 281.941 525.13 281.522 524.969 281.047C524.341 279.712 524.016 278.254 524.016 276.778C524.016 275.302 524.341 273.844 524.969 272.509C524.487 272.054 524.193 271.947 524.059 271.973C523.781 272.057 523.532 272.214 523.336 272.428C520.793 274.784 519.696 278.852 520.097 284.527C520.484 288.689 521.101 292.827 521.944 296.92C523.051 302.074 523.714 307.313 523.925 312.579L521.944 312.285ZM526.521 274.141C525.875 276.051 525.971 278.134 526.789 279.977C527.003 280.459 527.191 280.592 527.244 280.592C527.478 280.335 527.611 280.003 527.619 279.656C527.865 277.747 527.48 275.81 526.521 274.141ZM531.688 274.356C531.556 275.81 531.72 277.276 532.169 278.665C532.139 277.217 531.977 275.775 531.688 274.356Z" fill="#A9B3E6"/>
<path d="M503.742 347.163C503.742 347.163 489.315 378.4 490.76 383.54C492.381 387.875 494.549 391.986 497.211 395.772L510.595 411.057C510.595 411.057 517.474 429.392 522.747 430.998C528.02 432.604 535.113 434.21 535.113 434.21C535.113 434.21 509.899 398.315 507.436 394.22C504.973 390.125 511.076 367.078 512.79 363.785C513.998 361.838 514.9 359.716 515.466 357.495C515.734 356.13 528.154 344.968 529.251 339.508C530.349 334.047 530.536 328.801 528.154 327.248C525.772 325.696 523.175 323.42 523.175 323.42L506.178 341.863L503.742 347.163Z" fill="#FFBBAB"/>
<path d="M501.306 377.811C500.858 380.229 500.714 382.693 500.878 385.146C501.08 387.415 501.612 389.642 502.457 391.757C504.671 396.5 507.707 400.814 511.424 404.498C514.744 408.157 518.098 411.726 521.489 415.205C524.46 404.766 520.793 393.791 518.009 383.272C515.225 372.752 514.503 363.705 518.304 353.828C514.556 353.4 509.47 360.306 507.597 363.089C504.433 367.469 502.285 372.498 501.306 377.811Z" fill="url(#paint4_linear_1706_1956)"/>
<path d="M533.615 349.518C533.615 349.518 513.967 361.216 512.95 363.785C511.933 366.355 505.241 383.807 506.071 392.159C506.901 400.51 536.559 435.308 536.559 435.308C536.559 435.308 600.024 471.176 612.203 469.463C624.383 467.75 639.185 447.112 626.578 434.21C613.97 421.308 585.49 415.874 579.44 415.312C573.391 414.75 557.518 408.192 547.105 402.17C536.693 396.147 526.013 389.295 526.013 389.295C526.013 389.295 523.336 375.911 523.336 374.76C523.336 373.609 535.381 366.542 537.041 360.787C538.7 355.032 537.442 350.83 533.615 349.518Z" fill="#FFBBAB"/>
<path opacity="0.21" d="M517.447 338.303C518.277 338.273 519.09 338.062 519.83 337.687C521.174 337.083 522.457 336.347 523.658 335.492C524.092 335.269 524.477 334.962 524.791 334.588C525.105 334.215 525.341 333.782 525.486 333.316C525.631 332.85 525.681 332.359 525.633 331.873C525.586 331.388 525.442 330.916 525.21 330.487C524.537 328.218 523.64 326.021 522.533 323.929C522.747 324.33 519.669 327.756 519.294 328.211C518.117 329.684 516.859 331.102 515.574 332.494C514.289 333.886 513.432 334.261 513.968 335.84C514.241 336.547 514.717 337.158 515.336 337.596C515.955 338.034 516.69 338.28 517.447 338.303Z" fill="white"/>
<path opacity="0.21" d="M525.075 361.537C526.506 361.899 528.009 361.866 529.423 361.442C530.837 361.017 532.11 360.218 533.105 359.128C533.547 358.763 533.903 358.306 534.149 357.789C534.325 357.344 534.434 356.875 534.471 356.397C534.64 354.553 534.288 352.698 533.453 351.044C532.332 351.281 531.268 351.735 530.322 352.382L526.521 354.577C525.147 355.146 523.859 355.903 522.693 356.826C521.247 358.592 523.496 361.082 525.075 361.537Z" fill="white"/>
<path d="M531.929 433.193C533.947 435.228 536.193 437.024 538.621 438.547L537.603 438.199C535.58 436.686 533.682 435.012 531.929 433.193Z" fill="url(#paint5_linear_1706_1956)"/>
<path d="M657.012 486.299C649.737 488.653 642.291 490.443 634.741 491.653H634.34C629.147 487.209 623.419 480.946 619.457 477.921C619.029 477.6 618.654 477.305 618.279 477.065C607.01 469.436 593.412 464.484 581.126 458.675C574.97 455.758 569.001 452.519 562.951 449.387C576.924 454.982 590.923 460.442 605.217 465.073C609.981 466.625 615.522 467.99 619.725 465.233C622.069 463.415 623.912 461.029 625.078 458.301C628.023 452.653 630.646 446.657 633.992 441.277C635.357 443.231 633.296 446.229 632.76 448.37C631.947 451.568 631.702 454.884 632.038 458.167C632.458 461.976 633.635 465.662 635.502 469.009C637.368 472.355 639.885 475.295 642.905 477.653C647.188 480.973 652.541 483.06 657.012 486.299Z" fill="url(#paint6_linear_1706_1956)"/>
<path d="M444.426 346.038C441.816 345.451 439.32 344.438 437.038 343.04L442.633 333.94C443.919 334.715 445.319 335.284 446.782 335.626L444.426 346.038ZM458.184 345.182L454.544 335.144C455.958 334.631 457.278 333.89 458.452 332.949L465.117 341.274C463.039 342.952 460.696 344.272 458.184 345.182ZM427.777 332.815C426.602 330.408 425.842 327.82 425.528 325.16L436.235 323.848C436.433 325.344 436.866 326.798 437.52 328.158L427.777 332.815ZM473.04 329.978L462.949 326.579C463.419 325.144 463.663 323.645 463.672 322.135H474.379C474.366 324.805 473.914 327.455 473.04 329.978ZM437.359 316.166L427.75 311.535C428.908 309.137 430.444 306.94 432.3 305.031L439.929 312.472C438.889 313.565 438.022 314.811 437.359 316.166ZM461.45 314.614C460.623 313.355 459.602 312.235 458.425 311.294L465.064 302.943C467.153 304.595 468.961 306.575 470.417 308.805L461.45 314.614ZM446.728 308.671L444.319 298.259C446.952 297.665 449.662 297.493 452.349 297.75L451.332 308.457C449.796 308.275 448.241 308.347 446.728 308.671Z" fill="#FAFCFB"/>
<path d="M613.247 300.775C611.051 300.288 608.952 299.437 607.037 298.259L608.616 295.582C610.269 296.595 612.078 297.328 613.97 297.75L613.247 300.775ZM624.891 299.972L623.847 297.295C625.642 296.682 627.324 295.778 628.825 294.619L630.726 297.001C628.959 298.309 626.987 299.313 624.891 299.972ZM599.221 289.533C598.254 287.495 597.613 285.318 597.32 283.082L600.345 282.707C600.6 284.567 601.151 286.375 601.978 288.061L599.221 289.533ZM637.445 287.151L634.58 286.187C635.179 284.355 635.486 282.44 635.491 280.512H638.542C638.544 282.799 638.164 285.069 637.418 287.231L637.445 287.151ZM601.951 272.91L599.274 271.599C600.252 269.564 601.554 267.702 603.129 266.085L605.324 268.199C603.927 269.592 602.777 271.212 601.924 272.991L601.951 272.91ZM632.653 270.93C631.609 269.318 630.306 267.889 628.799 266.7L630.699 264.318C632.463 265.715 633.991 267.387 635.223 269.27L632.653 270.93ZM613.916 263.328L613.22 260.356C615.424 259.867 617.69 259.723 619.939 259.928L619.537 263.06C617.639 262.871 615.723 262.988 613.863 263.408L613.916 263.328Z" fill="#B4CBF9"/>
<path d="M420.709 214.156H416.908L415.195 216.619L424.564 244.269L427.241 245.715C427.241 245.715 443.756 244.751 456.685 252.888C458.418 253.826 460.362 254.305 462.333 254.28C464.554 253.879 473.039 250.908 473.039 250.908C473.039 250.908 476.76 245.26 479.838 241.539C484.185 237.282 488.828 233.337 493.731 229.735C493.731 229.735 487.467 194.134 485.995 191.859C484.523 189.584 482.783 190.306 482.783 190.306L454.49 214.932L420.709 214.156Z" fill="#95A5FC"/>
<path d="M483.024 198.658C484.093 201.718 484.82 204.887 485.192 208.107L487.869 225.425C488.096 226.303 488.096 227.224 487.869 228.102C487.267 229.244 486.334 230.177 485.192 230.779C481.91 233.131 479.171 236.162 477.162 239.665C474.914 243.573 472.987 248.552 468.597 249.596C465.92 250.265 462.467 249.061 460.085 250.72C451.269 245.185 441.05 242.296 430.641 242.396L421.727 218.118C421.146 216.812 420.845 215.398 420.844 213.969C421.031 210.971 423.761 208.294 423.039 205.376C436.19 210.417 450.101 213.186 464.18 213.567C464.594 213.671 465.026 213.681 465.445 213.597C465.863 213.512 466.258 213.335 466.599 213.079C466.94 212.822 467.22 212.492 467.417 212.114C467.615 211.735 467.725 211.317 467.74 210.89C468.597 207.357 469.373 203.824 470.096 200.184C470.604 197.667 470.524 190.173 472.157 188.379C476.011 184.203 481.632 195.044 483.024 198.658Z" fill="#DBD8EF"/>
<path d="M422.584 205.109C427.546 215.193 431.517 225.735 434.442 236.587C434.467 236.973 434.588 237.347 434.796 237.673C435.003 238 435.289 238.269 435.628 238.456C435.967 238.643 436.347 238.741 436.734 238.742C437.121 238.743 437.502 238.646 437.841 238.461C442.596 237.718 447.453 237.98 452.1 239.23C456.748 240.479 461.082 242.688 464.823 245.715C468.66 237.736 474.026 230.588 480.616 224.676C481.121 224.329 481.475 223.802 481.606 223.203C481.634 222.856 481.579 222.508 481.445 222.186C477.474 209.87 475.169 197.078 474.593 184.15C465.438 190.895 455.535 198.872 453.955 210.141C443.998 206.527 433.264 203.396 422.584 205.109Z" fill="white"/>
<path d="M464.716 192.127L470.069 187.55L478.099 223.498C478.099 223.498 463.27 237.604 464.716 245.715L453.955 210.141C453.955 210.141 459.309 196.704 464.716 192.127Z" fill="#D6E0FF"/>
<path d="M453.956 210.141L464.823 245.715C464.823 245.715 470.177 222.588 473.871 214.932L461.611 184.15C461.611 184.15 452.698 199.514 453.956 210.141Z" fill="white"/>
<path d="M603.825 222.079C604.678 221.416 605.696 221 606.769 220.875C607.361 220.904 607.946 221.012 608.509 221.196L639.854 230.538C631.288 242.048 616.807 247.508 606.689 257.68C606.218 258.212 605.656 258.656 605.03 258.991C604.278 259.174 603.498 259.204 602.735 259.08C601.971 258.956 601.241 258.68 600.586 258.269C595.286 255.864 589.624 254.353 583.83 253.799C581.501 253.558 577.299 254.521 577.245 252.085C577.245 250.185 580.243 246.732 581.26 245.019C587.108 235.889 594.793 228.077 603.825 222.079Z" fill="white"/>
<path d="M605.565 311.669C609.562 320.176 614.774 328.056 621.036 335.064C618.881 336.904 616.337 338.231 613.595 338.945C605.695 341.854 598.473 346.344 592.369 352.142C589.692 347.163 577.807 330.728 580.297 325.669C581.474 323.313 606.154 312.927 605.565 311.669Z" fill="white"/>
<path d="M438.322 359.984C446.353 360.466 454.383 361.242 462.413 362.367C463.143 362.401 463.849 362.642 464.447 363.063C464.939 363.571 465.289 364.198 465.464 364.883C469.043 375.396 474.544 385.153 481.685 393.658C473.655 398.583 450.448 408.808 442.712 399.011C439.768 395.157 435.967 359.85 438.322 359.984Z" fill="white"/>
<defs>
<linearGradient id="paint0_linear_1706_1956" x1="553.824" y1="378.641" x2="576.549" y2="349.063" gradientUnits="userSpaceOnUse">
<stop offset="0.01"/>
<stop offset="0.08" stop-opacity="0.69"/>
<stop offset="0.21" stop-opacity="0.32"/>
<stop offset="1" stop-opacity="0"/>
</linearGradient>
<linearGradient id="paint1_linear_1706_1956" x1="582.143" y1="252.888" x2="527.484" y2="611.892" gradientUnits="userSpaceOnUse">
<stop offset="0.01"/>
<stop offset="0.08" stop-opacity="0.69"/>
<stop offset="0.21" stop-opacity="0.32"/>
<stop offset="1" stop-opacity="0"/>
</linearGradient>
<linearGradient id="paint2_linear_1706_1956" x1="539.905" y1="296.144" x2="535.381" y2="374.144" gradientUnits="userSpaceOnUse">
<stop offset="0.01"/>
<stop offset="0.08" stop-opacity="0.69"/>
<stop offset="0.21" stop-opacity="0.32"/>
<stop offset="1" stop-opacity="0"/>
</linearGradient>
<linearGradient id="paint3_linear_1706_1956" x1="623.74" y1="338.303" x2="472.746" y2="239.371" gradientUnits="userSpaceOnUse">
<stop offset="0.01"/>
<stop offset="0.13" stop-opacity="0.69"/>
<stop offset="0.25" stop-opacity="0.32"/>
<stop offset="1" stop-opacity="0"/>
</linearGradient>
<linearGradient id="paint4_linear_1706_1956" x1="537.442" y1="387.769" x2="465.465" y2="374.974" gradientUnits="userSpaceOnUse">
<stop offset="0.01"/>
<stop offset="0.08" stop-opacity="0.69"/>
<stop offset="0.21" stop-opacity="0.32"/>
<stop offset="1" stop-opacity="0"/>
</linearGradient>
<linearGradient id="paint5_linear_1706_1956" x1="534.498" y1="437.155" x2="536.319" y2="434.023" gradientUnits="userSpaceOnUse">
<stop offset="0.01"/>
<stop offset="0.08" stop-opacity="0.69"/>
<stop offset="0.21" stop-opacity="0.32"/>
<stop offset="1" stop-opacity="0"/>
</linearGradient>
<linearGradient id="paint6_linear_1706_1956" x1="594.403" y1="494.704" x2="650.159" y2="398.208" gradientUnits="userSpaceOnUse">
<stop offset="0.01"/>
<stop offset="0.08" stop-opacity="0.69"/>
<stop offset="0.21" stop-opacity="0.32"/>
<stop offset="1" stop-opacity="0"/>
</linearGradient>
</defs>
</svg>
