<svg width="1024" height="576" viewBox="0 0 1024 576" fill="none" xmlns="http://www.w3.org/2000/svg">
<rect width="1024" height="576" fill="#DCE1FF"/>
<path d="M633.766 127.637C630.27 121.428 625.79 115.827 620.5 111.054C608.007 99.9989 591.082 94.9799 574.422 93.996C557.762 93.0121 541.135 95.7206 524.674 98.418C515.476 99.9989 506.113 101.524 497.844 105.891C484.478 112.989 476.242 126.277 469.919 139.532C463.595 152.787 459.593 167.49 444.79 173.803C435.471 177.793 424.438 179.098 414.732 182.47C395.938 189.014 377.686 197.947 362.353 210.826C347.472 223.318 339.004 249.11 334.317 267.472C329.63 285.835 328.889 305.701 334.759 323.853C344.211 353.05 369.914 374.806 398.381 386.259C426.848 397.712 458.079 400.166 488.723 401.15C515.255 402.001 542.959 403.704 569.425 401.67C579.839 400.874 589.457 399.934 600.103 399.813C612.742 399.842 625.319 398.051 637.447 394.495C656.827 388.536 674.802 376.376 684.63 358.688C697.896 334.698 694.458 304.739 685.448 278.826C676.438 252.913 662.41 228.824 654.981 202.413C650.503 186.472 648.502 169.922 644.191 153.926C641.859 144.751 638.355 135.916 633.766 127.637Z" fill="#C0CCFF"/>
<path d="M410.274 462.596C405.394 464.711 400.248 469.547 402.2 474.501C423.612 482.294 446.963 482.294 469.751 482.19C524.983 481.939 580.216 481.702 635.375 481.2C639.974 481.2 644.78 481.066 648.817 478.863C652.854 476.66 655.753 471.632 653.993 467.388C652.337 463.424 647.634 461.857 643.449 460.851C629.635 457.522 615.576 455.306 601.407 454.226C589.902 453.339 576.904 452.555 569.436 443.757C566.611 440.429 564.926 436.244 562.042 432.991C544.785 413.545 504.192 422.211 489.463 438.773C467.03 464.06 438.223 450.456 410.274 462.596Z" fill="#C0CCFF"/>
<path d="M464.265 311.494C460.982 320.884 458.143 330.6 458.084 340.552C458.025 350.504 461.041 360.811 468.066 367.85C478.343 378.202 494.344 379.341 508.88 379.917L528.105 380.686C535.661 380.982 543.292 381.278 550.7 379.769C558.109 378.261 565.355 374.697 569.925 368.634C572.864 364.333 574.832 359.443 575.692 354.305C580.897 329.032 572.454 302.103 556.586 281.755C551.973 275.575 546.342 270.225 539.935 265.932C529.258 259.145 497.479 248.971 487.039 260.342C482.292 265.503 479.29 275.958 476.288 282.288C471.765 291.803 467.751 301.552 464.265 311.494Z" fill="#FEFDFF"/>
<path d="M474.129 306.111C471.467 313.712 469.175 321.564 469.13 329.624C469.086 337.683 471.526 346.009 477.205 351.702C485.515 360.028 498.47 360.989 510.211 361.462L525.783 362.083C531.879 362.566 538.011 362.313 544.046 361.329C550.035 360.102 555.876 357.233 559.544 352.323C561.932 348.853 563.527 344.9 564.217 340.744C568.431 320.293 561.599 298.525 548.763 282.066C545.034 277.062 540.478 272.731 535.292 269.26C526.655 263.773 500.954 255.551 492.51 264.735C488.68 268.919 486.24 277.378 483.83 282.48C480.177 290.179 476.939 298.067 474.129 306.111Z" fill="#B4B4B4"/>
<path d="M492.716 440.918C491.238 443.491 489.596 445.96 488.191 448.548C486.047 452.57 484.568 457.317 485.988 461.635C486.186 462.387 486.591 463.068 487.156 463.602C487.911 464.134 488.794 464.456 489.714 464.534C492.704 465.002 495.724 465.249 498.75 465.273C502.89 465.273 507.356 464.785 510.432 462.005C516.599 456.401 516.185 442.603 512.65 435.831C512.308 434.969 511.718 434.228 510.955 433.701C510.191 433.175 509.289 432.886 508.362 432.873C505.567 432.329 502.711 432.175 499.874 432.415C496.694 432.769 495.851 433.538 494.742 436.57C494.183 438.07 493.506 439.524 492.716 440.918Z" fill="#4A67CD"/>
<path d="M500.835 441.509C501.577 441.642 502.329 441.716 503.083 441.731C505.39 441.835 508.007 441.82 509.649 440.178C511.29 438.537 511.32 436.126 511.32 433.893V425.228C511.32 419.505 505.966 420.289 501.767 420.998C500.791 421.114 499.857 421.464 499.046 422.019C497.567 423.187 497.404 425.316 497.345 427.18L497.049 436.304C496.919 437.397 497.083 438.504 497.522 439.513C497.888 440.074 498.376 440.545 498.95 440.891C499.523 441.237 500.168 441.448 500.835 441.509Z" fill="#FDBAAC"/>
<path d="M546.825 440.917C548.304 443.49 549.945 445.96 551.262 448.548C553.421 452.57 554.899 457.317 553.465 461.635C553.266 462.387 552.862 463.068 552.297 463.602C551.544 464.138 550.66 464.46 549.738 464.534C546.754 465.001 543.739 465.248 540.718 465.273C536.577 465.273 532.096 464.785 529.035 462.005C522.854 456.4 523.268 442.603 526.802 435.83C527.099 435.19 527.51 434.608 528.015 434.115C528.906 433.43 529.972 433.01 531.091 432.902C533.891 432.359 536.752 432.204 539.594 432.444C542.758 432.799 543.601 433.568 544.711 436.599C545.294 438.095 546.001 439.539 546.825 440.917Z" fill="#4A67CD"/>
<path d="M538.707 441.509C537.965 441.641 537.213 441.715 536.46 441.731C534.138 441.835 531.535 441.82 529.894 440.178C528.252 438.537 528.208 436.126 528.208 433.893V425.228C528.208 419.505 533.576 420.289 537.761 420.998C538.742 421.111 539.681 421.461 540.497 422.019C541.976 423.187 542.123 425.316 542.183 427.18L542.478 436.304C542.613 437.395 542.455 438.503 542.02 439.513C541.654 440.074 541.166 440.545 540.593 440.891C540.019 441.237 539.374 441.448 538.707 441.509Z" fill="#FDBAAC"/>
<path d="M534.626 216.999C534.626 216.999 552.667 224.807 554.782 226.582C556.675 228.164 551.543 336.471 551.144 341.765C550.745 347.059 521.879 347.902 509.398 345.521C501.07 343.825 492.921 341.349 485.057 338.127C485.057 338.127 481.108 226.256 483.578 224.26C486.048 222.264 509.901 214.885 509.901 214.885L534.626 216.999Z" fill="#4969D8"/>
<path d="M475.282 350.578C473.936 355.518 473.123 361.078 475.696 365.485C477.41 368.184 479.976 370.234 482.986 371.311C485.979 372.365 489.096 373.027 492.258 373.278C511.636 375.489 531.247 374.424 550.271 370.128C552.925 369.766 555.417 368.641 557.443 366.89C559.125 364.836 560.1 362.295 560.224 359.643C561.351 350.246 559.406 340.737 554.678 332.537C554.35 331.865 553.837 331.301 553.199 330.911C552.587 330.639 551.915 330.528 551.247 330.585L502.018 330.748C498.445 330.837 494.869 330.704 491.312 330.349C488.547 330.023 485.397 328.264 483.415 330.63C479.201 335.569 476.938 344.427 475.282 350.578Z" fill="#473F47"/>
<path d="M475.282 350.578C473.936 355.518 473.123 361.078 475.696 365.485C477.41 368.184 479.976 370.234 482.986 371.311C485.979 372.365 489.096 373.027 492.258 373.278C511.636 375.489 531.247 374.424 550.271 370.128C552.925 369.766 555.417 368.641 557.443 366.89C559.125 364.836 560.1 362.295 560.224 359.643C561.351 350.246 559.406 340.737 554.678 332.537C554.35 331.865 553.837 331.301 553.199 330.911C552.587 330.639 551.915 330.528 551.247 330.585L502.018 330.748C498.445 330.837 494.869 330.704 491.312 330.349C488.547 330.023 485.397 328.264 483.415 330.63C479.201 335.569 476.938 344.427 475.282 350.578Z" fill="#363036"/>
<path d="M533.945 428.451L536.829 428.732C545.554 429.605 549.073 422.167 549.946 413.442C550.153 411.623 550.582 409.789 550.892 407.985L556.645 374.476L559.307 358.948C559.573 357.381 559.854 355.828 560.105 354.261C560.874 349.706 559.499 345.314 558.626 340.744C558.109 337.979 557.443 335.007 555.314 333.173C553.184 331.339 550.242 331.177 547.491 331.044C540.186 330.718 532.777 330.378 525.664 332.079C525.227 332.135 524.823 332.344 524.525 332.67C524.326 333.046 524.259 333.479 524.333 333.898C524.851 340.848 525.96 347.739 525.812 354.689L524.555 410.529C523.668 419.209 525.221 427.579 533.945 428.451Z" fill="#473F47"/>
<path d="M506.662 430.67L503.704 430.951C494.994 431.823 491.46 424.385 490.588 415.66L481.197 360.945C480.443 356.597 479.807 352.412 479.482 347.991C479.121 345.001 479.221 341.974 479.778 339.014C480.066 337.537 480.687 336.144 481.594 334.942C482.501 333.74 483.67 332.761 485.013 332.079C486.431 331.54 487.932 331.25 489.449 331.221C494.443 330.895 499.459 331.133 504.4 331.931C506.175 332.082 507.881 332.688 509.353 333.691C510.81 335.107 511.835 336.906 512.311 338.881C513.79 343.14 515.697 347.843 515.269 352.398C514.915 355.307 514.747 358.236 514.766 361.167L515.195 380.539L515.919 412.229C515.905 412.406 515.905 412.585 515.919 412.762C516.881 421.383 515.328 429.753 506.662 430.67Z" fill="#473F47"/>
<path d="M658.415 316.478V319.672C658.417 320.285 658.298 320.892 658.065 321.459C657.832 322.026 657.489 322.541 657.056 322.975C656.623 323.409 656.109 323.754 655.543 323.989C654.977 324.224 654.37 324.345 653.757 324.345H380.787C380.174 324.345 379.567 324.224 379.001 323.989C378.435 323.754 377.921 323.409 377.488 322.975C377.055 322.541 376.712 322.026 376.479 321.459C376.246 320.892 376.127 320.285 376.129 319.672V316.478C376.129 315.242 376.62 314.057 377.493 313.184C378.367 312.31 379.552 311.819 380.787 311.819H653.757C654.992 311.819 656.177 312.31 657.051 313.184C657.924 314.057 658.415 315.242 658.415 316.478Z" fill="#36436D"/>
<path d="M573.503 262.309C573.503 262.309 585.215 286.709 583.958 293.364C583.086 298.051 574.109 302.162 570.56 304.292C567.011 306.421 563.447 309.039 559.765 310.488C556.083 311.937 551.883 311.375 548.142 311.257L528.918 310.636C528.001 310.636 526.773 310.296 526.773 309.364C526.773 308.817 527.247 308.388 527.705 308.078C529.143 307.075 530.812 306.455 532.556 306.274C536.709 306.011 540.813 305.226 544.77 303.937L566.893 288.705L561.555 278.812L573.503 262.309Z" fill="#FFCFC8"/>
<path d="M484.628 223.728C480.783 225.399 478.151 227.705 477.234 231.654C475.755 237.761 472.724 242.878 469.84 248.423C468.119 251.79 466.637 255.274 465.404 258.849C464.925 259.935 464.751 261.131 464.901 262.309C465.156 263.2 465.589 264.03 466.173 264.749C469.594 269.521 473.153 274.189 476.849 278.753C479.081 277.721 481.214 276.488 483.223 275.071C484.007 273.829 483.696 270.842 483.815 269.393C484.031 266.435 484.229 263.443 484.406 260.416L484.628 223.728Z" fill="#4969D8"/>
<path d="M528.045 203.424C528.188 204.126 528.282 204.838 528.326 205.553C528.518 208.422 528.222 211.365 529.08 214.101C529.411 215.086 529.858 216.029 530.411 216.91C532.466 220.164 529.923 225.473 528.119 228.43C525.826 232.171 522.203 235.824 517.604 236.268C511.822 236.785 509.308 230.353 508.244 225.783C507.622 223.151 507.09 221.258 508.081 218.655C509.072 216.053 510.61 213.568 511.393 210.818C512.051 207.648 512.427 204.427 512.517 201.191C512.556 200.329 512.783 199.486 513.183 198.721C513.521 198.221 513.958 197.795 514.466 197.47C514.975 197.144 515.544 196.926 516.14 196.828C517.307 196.624 518.498 196.589 519.675 196.725C521.495 196.721 523.289 197.168 524.895 198.026C525.751 198.673 526.47 199.483 527.011 200.409C527.552 201.336 527.903 202.36 528.045 203.424Z" fill="#FFCFC8"/>
<path d="M512 208.289C512 208.289 514.351 223.003 520.607 220.356C526.862 217.709 528.385 209.265 528.385 209.265L512 208.289Z" fill="#F0BEB7"/>
<path d="M530.589 216.807C530.589 216.807 525.058 233.842 519.232 236.12C519.232 236.12 517.679 237.14 522.263 239.358C526.848 241.576 537.85 227.424 535.247 218.019C534.952 216.816 534.352 215.71 533.505 214.806C532.658 213.902 531.593 213.231 530.411 212.858L530.589 216.807Z" fill="#FEFDFF"/>
<path d="M508.688 215.151C508.688 215.151 507.845 227.395 513.464 235.277C513.464 235.277 511.675 238.56 509.93 238.722C508.185 238.885 502.906 228.829 504.015 220.844C504.533 216.245 507.697 213.997 508.688 215.151Z" fill="#FEFDFF"/>
<path d="M503.822 175.46C503.822 175.46 504.118 198.218 506.41 204.148C508.702 210.078 514.396 214.84 519.601 214.367C524.806 213.894 532.259 208.836 535.04 200.703C537.82 192.569 537.82 173.271 536.711 170.742C535.602 168.214 529.627 160.465 515.845 162.979C506.366 164.709 503.512 171.985 503.822 175.46Z" fill="#FFCFC8"/>
<path d="M573.946 250.509C575.869 253.23 577.229 255.196 577.555 255.655C578.055 256.277 578.432 256.99 578.664 257.755C578.75 258.455 578.691 259.166 578.49 259.843C578.289 260.52 577.95 261.148 577.495 261.688C575.44 264.646 572.408 266.657 569.761 269.082C566.782 272.031 564.111 275.277 561.791 278.768C559.996 277.486 558.358 275.997 556.911 274.332C555.524 273.281 554.438 271.882 553.763 270.278C553.088 268.674 552.848 266.92 553.066 265.193L552.8 246.117L552.652 236.578C552.652 234.937 550.537 227.513 551.558 226.227C553.983 223.195 567.292 241.222 573.946 250.509Z" fill="#4969D8"/>
<path d="M500.939 183.889C500.77 183.838 500.59 183.838 500.421 183.889C500.257 183.995 500.124 184.143 500.037 184.318C499.436 185.387 499.232 186.633 499.46 187.838C499.709 188.829 500.087 189.784 500.584 190.677C501.09 192.128 501.991 193.408 503.187 194.374C503.426 194.546 503.721 194.625 504.015 194.596C504.228 194.558 504.425 194.455 504.577 194.3C505.344 193.393 505.745 192.233 505.701 191.047C506.02 189.389 505.715 187.671 504.843 186.226C504.405 185.572 503.828 185.023 503.153 184.619C502.478 184.215 501.722 183.966 500.939 183.889Z" fill="#FFCFC8"/>
<path d="M539.727 183.519C539.897 183.483 540.074 183.483 540.244 183.519C540.406 183.629 540.538 183.776 540.629 183.948C541.222 185.025 541.426 186.273 541.206 187.482C540.938 188.468 540.561 189.42 540.082 190.322C539.574 191.768 538.673 193.043 537.479 194.004C537.236 194.182 536.937 194.267 536.636 194.241C536.43 194.193 536.241 194.091 536.089 193.945C535.324 193.037 534.924 191.878 534.965 190.691C534.636 189.034 534.942 187.313 535.823 185.871C536.259 185.214 536.835 184.663 537.511 184.256C538.186 183.849 538.943 183.598 539.727 183.519Z" fill="#FFCFC8"/>
<path d="M499.918 173.36C499.445 170.402 499.341 166.986 501.397 164.812C501.826 164.354 502.343 163.984 502.787 163.541C503.231 163.097 503.911 162.195 504.488 161.515C506.207 159.653 508.299 158.174 510.628 157.172C512.956 156.171 515.469 155.671 518.004 155.703C523.06 155.805 528.061 156.77 532.792 158.557C535.453 159.425 538.096 160.366 540.718 161.382C541.737 161.703 542.679 162.231 543.483 162.934C544.053 163.565 544.436 164.341 544.59 165.177C544.744 166.012 544.663 166.874 544.356 167.667C543.912 168.924 542.995 169.988 542.626 171.26C542.404 172.264 542.315 173.294 542.359 174.321C542.266 177.055 541.548 179.731 540.259 182.144C539.548 183.68 538.361 184.945 536.873 185.752C536.99 182.057 536.491 178.369 535.394 174.839C532.26 177.367 528.447 178.911 524.436 179.275C520.443 179.618 516.421 179.161 512.606 177.929C511.675 177.528 510.648 177.405 509.649 177.574C508.687 177.841 507.918 179.053 508.466 179.852C508.277 179.732 508.068 179.651 507.848 179.613C507.628 179.575 507.403 179.581 507.186 179.631C506.969 179.68 506.764 179.772 506.582 179.901C506.401 180.031 506.247 180.195 506.129 180.384C505.697 181.176 505.488 182.07 505.523 182.972L505.271 188.621C501.885 184.643 500.746 178.521 499.918 173.36Z" fill="#C67C61"/>
<path d="M464.871 262.309C462.446 267.352 460.213 272.513 458.231 277.748C456.746 281.379 455.568 285.128 454.712 288.957C454.401 290.436 453.677 292.462 454.224 293.955C455.067 296.247 458.542 298.037 460.494 299.22C466.715 303.031 473.193 306.406 479.881 309.32C482.473 310.561 485.218 311.456 488.044 311.982C490.261 312.253 492.499 312.317 494.728 312.174L507.564 311.73C508.732 311.73 510.255 311.331 510.359 310.163C510.359 309.349 509.664 308.684 508.969 308.255C506.679 306.806 504.188 305.705 501.575 304.987C499.016 304.292 495.852 304.765 493.441 303.907C490.72 302.946 487.689 299.9 485.279 298.229L471.481 288.705L476.82 278.812L464.871 262.309Z" fill="#FFCFC8"/>
<path d="M399.302 311.819L397.232 324.345L373.334 471.484C373.233 472.427 372.818 473.309 372.155 473.987C371.493 474.666 370.622 475.102 369.682 475.226C367.996 475.226 366.902 473.54 367.242 471.484L391.139 324.345L393.165 311.819H399.302Z" fill="#36436D"/>
<path d="M637.431 311.819L639.457 324.345L663.413 471.484C663.514 472.427 663.929 473.309 664.592 473.987C665.254 474.666 666.126 475.102 667.066 475.226C668.751 475.226 669.846 473.54 669.506 471.484L645.608 324.345L643.582 311.819H637.431Z" fill="#36436D"/>
<path d="M554.131 306.599H481.833V311.878H554.131V306.599Z" fill="#808BAE"/>
<path d="M425.876 311.819H390.163C391.464 308.121 393.88 304.919 397.078 302.653C400.277 300.387 404.1 299.17 408.019 299.17C411.939 299.17 415.762 300.387 418.961 302.653C422.159 304.919 424.575 308.121 425.876 311.819Z" fill="#4969D8"/>
<path d="M388.528 244.002C388.046 242.588 386.508 241.832 385.094 242.315C383.679 242.797 382.923 244.335 383.406 245.749L402.622 302.099C403.104 303.514 404.642 304.269 406.056 303.787C407.471 303.305 408.227 301.767 407.744 300.352L388.528 244.002Z" fill="#4969D8"/>
<path d="M385.181 242.235C383.755 242.683 382.963 244.202 383.411 245.628C383.859 247.054 385.378 247.846 386.803 247.398L443.603 229.555C445.029 229.107 445.821 227.588 445.373 226.162C444.926 224.736 443.407 223.944 441.981 224.391L385.181 242.235Z" fill="#4969D8"/>
<path d="M466.054 231.595C461.47 238.16 456.043 242.36 453.721 241.222C453.617 241.166 453.518 241.102 453.426 241.029L453.115 240.837C446.342 236.09 440.087 223.535 444.834 216.748C449.581 209.96 463.526 211.513 470.299 216.26L470.594 216.481C470.694 216.542 470.788 216.611 470.875 216.688C472.739 218.478 470.654 225.014 466.054 231.595Z" fill="#4969D8"/>
<path d="M466.054 231.595C461.47 238.16 456.043 242.36 453.721 241.221L453.514 241.103C453.478 241.088 453.447 241.062 453.425 241.029C451.37 239.388 453.425 232.748 458.128 226.049C462.83 219.35 468.346 215.121 470.594 216.481H470.698L470.875 216.629C472.738 218.478 470.653 225.014 466.054 231.595Z" fill="#FEFDFF"/>
<path d="M618.62 262.295H609.955C607.978 262.295 606.376 263.897 606.376 265.873V308.64C606.376 310.616 607.978 312.219 609.955 312.219H618.62C620.597 312.219 622.199 310.616 622.199 308.64V265.873C622.199 263.897 620.597 262.295 618.62 262.295Z" fill="#4A67CD"/>
<path d="M633.979 262.058L625.334 262.654C623.362 262.789 621.874 264.498 622.01 266.47L624.948 309.135C625.084 311.107 626.792 312.595 628.764 312.459L637.409 311.864C639.381 311.728 640.87 310.02 640.734 308.048L637.795 265.382C637.659 263.411 635.951 261.922 633.979 262.058Z" fill="#4A67CD"/>
<path d="M554.205 306.614H482.262L475.947 258.139L559.307 259.293L554.205 306.614Z" fill="#8E9BC5"/>
<path d="M479.097 255.743L475.947 258.139L559.307 259.293L556.438 256.483L479.097 255.743Z" fill="#818FBC"/>
<path d="M630.954 175.962C630.52 181.354 628.231 186.428 624.477 190.322C621.105 193.646 618.707 197.829 617.541 202.418C617.216 203.823 617.039 205.272 616.787 206.854H596.084C595.936 205.804 595.833 204.754 595.626 203.734C594.754 199.297 592.647 195.196 589.548 191.904C586.808 189.114 584.651 185.806 583.204 182.173C581.974 178.755 581.509 175.109 581.842 171.491C582.175 167.874 583.297 164.373 585.131 161.237C586.964 158.101 589.463 155.405 592.452 153.34C595.441 151.275 598.846 149.891 602.428 149.285C603.094 149.182 603.744 149.108 604.38 149.048C607.978 148.749 611.598 149.242 614.985 150.494C618.372 151.746 621.443 153.726 623.981 156.294C626.519 158.862 628.463 161.955 629.676 165.356C630.888 168.757 631.34 172.383 630.998 175.977L630.954 175.962Z" fill="#EEEEFE"/>
<path d="M626.902 175.963C626.479 181.354 624.194 186.43 620.44 190.322C617.064 193.645 614.661 197.828 613.489 202.418C613.164 203.823 613.001 205.272 612.735 206.855H596.099C595.951 205.805 595.847 204.755 595.64 203.734C594.769 199.297 592.662 195.197 589.562 191.904C586.823 189.114 584.666 185.806 583.218 182.174C581.988 178.756 581.524 175.109 581.856 171.492C582.189 167.874 583.312 164.374 585.145 161.237C586.979 158.101 589.478 155.405 592.467 153.34C595.455 151.275 598.861 149.891 602.443 149.285C603.108 149.182 603.759 149.108 604.395 149.049C607.651 149.316 610.821 150.227 613.722 151.73C616.623 153.233 619.196 155.296 621.293 157.802C623.39 160.307 624.968 163.204 625.936 166.324C626.904 169.444 627.242 172.726 626.931 175.978L626.902 175.963Z" fill="#FCFCFE"/>
<path d="M617.26 206.81H596.734C595.248 206.81 594.043 208.015 594.043 209.501V209.516C594.043 211.003 595.248 212.208 596.734 212.208H617.26C618.746 212.208 619.951 211.003 619.951 209.516V209.501C619.951 208.015 618.746 206.81 617.26 206.81Z" fill="#3650C7"/>
<path d="M615.693 211.335H597.356C596.024 211.335 594.945 212.415 594.945 213.746C594.945 215.077 596.024 216.156 597.356 216.156H615.693C617.024 216.156 618.103 215.077 618.103 213.746C618.103 212.415 617.024 211.335 615.693 211.335Z" fill="#2C45B7"/>
<path d="M614.495 215.283H598.568C597.417 215.283 596.483 216.217 596.483 217.369V217.383C596.483 218.535 597.417 219.468 598.568 219.468H614.495C615.647 219.468 616.58 218.535 616.58 217.383V217.369C616.58 216.217 615.647 215.283 614.495 215.283Z" fill="#263A99"/>
<path d="M601.304 206.736C601.145 202.954 600.65 199.193 599.825 195.498C599.193 192.43 598.734 189.33 598.45 186.211C598.124 181.493 599.056 178.196 601.304 176.125C601.692 175.712 602.218 175.455 602.783 175.401C603.087 175.398 603.388 175.456 603.67 175.57C603.951 175.684 604.208 175.853 604.424 176.066C604.498 175.978 604.557 175.889 604.631 175.815C605.012 175.332 605.526 174.972 606.11 174.78C606.406 174.694 606.717 174.67 607.022 174.711C607.328 174.752 607.621 174.856 607.884 175.016C608.265 175.239 608.593 175.542 608.846 175.904C609.156 175.705 609.503 175.57 609.866 175.506C610.229 175.443 610.601 175.452 610.96 175.534C612.306 175.874 613.238 177.146 613.637 179.201C614.598 184.141 613.548 189.124 612.528 193.989C611.457 198.049 610.993 202.245 611.153 206.441L609.674 206.574C609.496 202.234 609.969 197.893 611.079 193.694C612.114 188.799 613.09 184.185 612.188 179.541C612.025 178.713 611.611 177.279 610.605 177.028C610.245 176.962 609.873 177.042 609.57 177.249C609.674 177.509 609.758 177.776 609.822 178.048C610.174 179.5 610.347 180.99 610.339 182.484C610.353 182.719 610.316 182.953 610.232 183.173C610.148 183.392 610.018 183.591 609.851 183.756C609.699 183.893 609.514 183.987 609.314 184.028C609.114 184.07 608.906 184.058 608.713 183.993C608.382 183.848 608.092 183.626 607.865 183.346C607.639 183.065 607.483 182.734 607.411 182.381C606.949 181.004 606.862 179.529 607.16 178.107C607.284 177.676 607.484 177.27 607.751 176.909C607.595 176.657 607.383 176.444 607.13 176.288C607.041 176.231 606.941 176.193 606.837 176.178C606.732 176.163 606.625 176.17 606.524 176.199C606.221 176.312 605.958 176.513 605.77 176.776C605.651 176.909 605.563 177.042 605.459 177.175C606.678 178.829 607.208 180.891 606.938 182.928C606.79 183.948 606.184 184.924 605.119 184.924C604.752 184.885 604.404 184.739 604.118 184.505C603.832 184.272 603.62 183.96 603.507 183.608C603.064 182.619 602.843 181.545 602.861 180.462C602.879 179.378 603.135 178.312 603.611 177.338H603.537C603.182 176.998 602.96 176.924 602.871 176.939C602.668 176.997 602.484 177.109 602.339 177.264C600.461 178.994 599.662 181.996 599.958 186.137C600.243 189.195 600.692 192.236 601.304 195.246C602.14 199.029 602.635 202.88 602.783 206.751L601.304 206.736ZM604.675 178.639C604.2 180.043 604.269 181.573 604.868 182.928C604.939 183.104 605.051 183.261 605.193 183.386C605.366 183.188 605.47 182.939 605.489 182.677C605.643 181.296 605.353 179.903 604.661 178.699L604.675 178.639ZM608.476 178.787C608.372 179.859 608.487 180.941 608.816 181.967C608.795 180.918 608.676 179.873 608.461 178.846L608.476 178.787Z" fill="#3650C7"/>
</svg>
