<svg width="1024" height="576" viewBox="0 0 1024 576" fill="none" xmlns="http://www.w3.org/2000/svg">
<rect width="1024" height="576" fill="#3155C7"/>
<path d="M647.647 103.864C636.041 99.6465 625.458 92.9887 613.908 88.6701C598.231 82.822 581.294 81.4275 564.514 81.45C510.408 81.45 455.211 96.5313 412.925 130.282C396.078 143.698 380.941 160.219 360.776 167.698C344.817 173.636 326.059 173.782 313.148 184.882C298.707 197.253 296.919 218.835 298.213 237.841C299.506 256.848 302.599 276.922 294.479 294.152C289.71 304.273 281.534 312.27 274.831 321.222C265.747 333.373 259.374 347.331 256.14 362.154C252.906 376.977 252.887 392.321 256.084 407.152C259.281 421.983 265.621 435.956 274.675 448.13C283.728 460.304 295.287 470.396 308.57 477.725C335.123 492.346 366.602 495 396.933 494.494C424.621 494.033 453.581 490.782 476.557 475.319C491.357 465.343 502.986 450.723 519.057 442.963C538.434 433.629 561.039 435.675 582.554 435.54C608.038 435.361 634.152 431.582 656.386 419.121C678.62 406.66 696.423 384.358 698.447 358.964C699.988 339.474 692.509 319.152 699.043 300.742C701.529 293.736 705.903 287.561 710.593 281.803C727.845 260.536 750.686 242.925 761.584 217.733C767.488 204.102 769.456 189.089 770.154 174.255C771.008 155.574 768.489 134.049 753.16 123.32C739.26 113.592 722.143 118.09 706.477 115.841C687.223 113.041 665.99 110.499 647.647 103.864Z" fill="#7990DE"/>
<path d="M729.51 167.012C729.062 169.73 728.469 172.422 727.733 175.076C723.836 188.986 718.318 202.39 711.29 215.012C695.636 243.723 666.957 281.365 614.954 316.228C533.306 371.178 461.644 380.332 435.204 381.716C428.209 382.109 424.374 381.963 424.374 381.963L400.431 344.85C400.431 344.85 427.422 304.667 476.141 262.527C498.609 242.972 522.991 225.731 548.916 211.064C564.431 202.323 580.494 194.591 597.005 187.919C619.665 178.627 643.306 171.938 667.475 167.979C706.623 161.884 729.51 167.012 729.51 167.012Z" fill="#CBD2FE"/>
<path d="M418.11 386.754C409.472 400.055 396.523 409.982 381.436 414.87L387.171 402.567C379.974 411.474 372.72 420.426 364.195 428.085C355.67 435.743 345.717 442.097 334.628 444.954C333.504 443.323 334.707 441.141 335.899 439.556C343.791 429.051 352.553 419.228 362.092 410.192C340.128 422.979 318.074 435.811 294.445 445.168C309.637 424.088 327.823 405.338 348.428 389.51L333.942 393.243C350.979 373.449 371.512 356.957 394.515 344.592C403.951 357.514 411.475 372.258 418.11 386.754Z" fill="#D6DAFF"/>
<path d="M372.461 374.653C371.932 375.384 371.404 376.362 371.865 377.138C372.219 377.581 372.716 377.887 373.271 378.004L377.6 379.433C372.023 384.338 366.883 389.719 362.238 395.515C361.462 396.482 360.708 397.955 361.597 398.821C362.018 399.167 362.548 399.354 363.093 399.35C369.109 399.89 374.721 396.561 379.85 393.367C378.918 396.755 377.303 399.916 375.104 402.656C380.907 401.532 386.159 398.529 390.849 395.031C395.538 391.534 399.958 387.53 404.794 384.145L403.197 388.306C406.157 386.358 408.708 383.852 410.71 380.928C411.192 380.405 411.496 379.742 411.579 379.035C411.662 378.328 411.519 377.613 411.171 376.992C408.758 370.457 405.306 364.354 400.948 358.919C400.199 357.869 399.242 356.985 398.136 356.322C394.605 354.466 387.239 360.505 384.404 362.586C379.815 365.957 375.784 370.029 372.461 374.653Z" fill="#F0F0FC"/>
<path d="M729.104 167.406L727.721 175.076C723.841 188.99 718.325 202.395 711.29 215.012C695.624 243.723 666.957 281.309 614.965 316.228C533.306 371.178 461.644 380.333 435.204 381.727L426.207 369.232C633.005 308.176 681.859 210.468 687.549 209.658C693.24 208.849 710.357 167.327 710.357 167.327L729.104 167.406Z" fill="#B8BFEB"/>
<path d="M512.759 169.891C514.999 171.083 517.407 171.925 519.901 172.388C523.578 172.871 527.233 171.702 530.798 170.701C534.95 169.54 539.158 168.591 543.406 167.856C545.745 167.462 548.478 167.248 550.153 168.98C551.829 170.712 551.492 173.704 550.03 175.627C548.568 177.55 546.307 178.652 544.125 179.698L531.327 185.805C529.137 186.934 526.848 187.86 524.489 188.571C514.739 191.203 504.617 186.322 496.126 180.89C492.853 178.776 489.311 175.987 489.176 172.095C489.218 170.551 489.538 169.027 490.12 167.597C490.576 165.822 491.501 164.202 492.797 162.907C496.666 159.567 508.857 168.058 512.759 169.891Z" fill="#6883F6"/>
<path d="M538.198 217.385C534.565 223.008 529.898 227.967 525.264 232.837C520.631 237.707 515.997 242.498 509.834 244.781C506.798 245.905 503.199 246.288 500.433 244.578C497.43 242.734 496.193 238.786 496.755 235.3C497.508 231.826 499.236 228.638 501.737 226.112C503.655 223.744 505.786 221.557 508.103 219.578C510.644 217.643 513.343 217.744 516.661 217.508C523.829 216.989 531.024 216.948 538.198 217.385Z" fill="#3E3E54"/>
<path d="M635.906 239.843C646.217 239.843 654.575 231.485 654.575 221.174C654.575 210.864 646.217 202.505 635.906 202.505C625.596 202.505 617.237 210.864 617.237 221.174C617.237 231.485 625.596 239.843 635.906 239.843Z" fill="#7891F6"/>
<path d="M586.613 268.476C596.924 268.476 605.282 260.118 605.282 249.808C605.282 239.497 596.924 231.139 586.613 231.139C576.303 231.139 567.944 239.497 567.944 249.808C567.944 260.118 576.303 268.476 586.613 268.476Z" fill="#7891F6"/>
<path d="M532.632 305.095C542.942 305.095 551.301 296.736 551.301 286.426C551.301 276.115 542.942 267.757 532.632 267.757C522.321 267.757 513.963 276.115 513.963 286.426C513.963 296.736 522.321 305.095 532.632 305.095Z" fill="#7891F6"/>
<path d="M577.594 149.445L592.889 137.873C592.889 137.873 596.645 136.613 597.905 138.188C599.164 139.762 597.747 187.739 597.747 187.739L578.808 196.657L577.594 149.445Z" fill="#4C5EA8"/>
<path d="M577.009 319.917C577.133 320.222 577.312 320.5 577.538 320.738C577.822 320.974 578.157 321.14 578.516 321.222C579.438 321.478 580.405 321.531 581.349 321.375C582.293 321.22 583.191 320.86 583.982 320.322C584.639 319.904 585.153 319.296 585.455 318.579C585.74 317.46 585.665 316.279 585.242 315.205L584.308 311.966C584.301 311.92 584.282 311.878 584.252 311.842C584.173 311.842 584.072 311.842 583.993 311.842C581.283 313.462 578.089 311.842 575.502 312.967C573.321 314.024 576.211 318.275 577.009 319.917Z" fill="#F9DDCA"/>
<path d="M580.158 319.692C579.247 319.748 578.341 319.872 577.448 320.063C577.004 320.172 576.595 320.392 576.261 320.703C575.926 321.014 575.677 321.406 575.536 321.84C575.46 322.696 575.687 323.552 576.177 324.258C576.829 325.462 577.482 326.665 578.179 327.846C578.554 328.637 579.152 329.301 579.9 329.758C580.657 330.06 581.489 330.123 582.284 329.938C584.674 329.479 586.998 328.724 589.2 327.688C593.699 325.791 598.164 323.763 602.595 321.604C603.326 321.244 604.135 320.783 604.282 319.985C604.319 319.706 604.288 319.422 604.193 319.158C604.097 318.893 603.938 318.656 603.731 318.466C603.308 318.094 602.82 317.804 602.291 317.612C599.133 316.402 595.813 315.67 592.439 315.441C591.247 315.317 589.245 314.755 588.132 315.295C587.018 315.835 585.95 317.162 584.758 317.882C583.37 318.804 581.802 319.421 580.158 319.692Z" fill="#3E3E54"/>
<path d="M537.613 227.315C536.489 229.396 539.986 236.031 541.898 237.437C543.81 238.843 546.149 239.686 547.521 241.643C547.797 241.984 547.993 242.381 548.097 242.807C548.2 243.233 548.207 243.677 548.117 244.106C547.758 245.365 546.318 245.928 545.07 246.355L511.511 256.679C510.581 256.876 509.72 257.314 509.014 257.95C507.664 259.39 508.339 261.909 509.88 263.112C511.549 264.184 513.526 264.674 515.503 264.507C526.356 264.507 538.277 260.008 547.364 265.901C549.948 267.748 552.19 270.031 553.988 272.649C560.396 281.151 565.303 290.687 568.496 300.843C569.474 303.97 570.284 307.378 569.159 310.459C563.849 308.289 559.284 304.619 556.024 299.899C551.952 293.961 549.861 286.336 543.934 282.265C539.604 279.284 534.003 278.891 528.762 279.329C523.522 279.768 518.36 281.084 513.108 281.151C501.411 281.297 490.615 275.528 480.313 269.905C478.165 268.78 475.725 267.105 475.68 264.653C475.675 263.979 475.837 263.314 476.152 262.718C498.621 243.164 523.002 225.922 548.927 211.255C564.442 202.514 580.505 194.783 597.016 188.11C601.47 194.442 538.097 226.449 537.613 227.315Z" fill="black" fill-opacity="0.2"/>
<path d="M557.564 162.626C560.747 161.895 564.458 162.626 566.471 165.213C566.726 165.502 566.884 165.864 566.921 166.247C566.932 166.335 566.925 166.424 566.901 166.508C566.877 166.593 566.835 166.672 566.78 166.74C566.724 166.809 566.655 166.865 566.577 166.906C566.499 166.947 566.413 166.972 566.325 166.979H563.975C562.377 167.96 560.898 169.122 559.566 170.442C557.628 172.024 555.33 173.101 552.875 173.58C549.613 174.221 545.565 172.006 548.095 168.463C550.074 165.685 554.303 163.38 557.564 162.626Z" fill="#F9DDCA"/>
<path d="M582.352 149.356L598.164 138.334C598.164 138.334 595.341 136.299 593.148 138.019C590.955 139.74 577.819 149.58 577.819 149.58L582.352 149.356Z" fill="#46579F"/>
<path d="M545.734 215.079L579.068 196.815L582.352 149.4C582.352 149.4 577.291 147.309 576.875 152.111C576.459 156.913 572.916 193.002 572.916 193.002L544.126 208.23C544.126 208.23 539.841 212.56 545.734 215.079Z" fill="#434F87"/>
<path d="M729.093 167.417C729.093 167.417 726.315 187.098 710.874 215.417C705.908 213.861 701.028 212.044 696.254 209.973C676.663 201.584 668.588 174.154 667.104 168.463C706.207 162.3 729.093 167.417 729.093 167.417Z" fill="#3E57BB"/>
<path d="M404.501 332.547L435.8 382.616L418.897 388.88L393.232 345.694L404.501 332.547Z" fill="#3E57BB"/>
<path d="M425.589 375.901C425.589 375.901 456.887 355.253 476.287 361.506L492.561 366.511C492.561 366.511 482.551 429.737 426.837 435.372C426.837 435.372 414.95 436.62 428.097 414.712C441.244 392.805 425.589 375.901 425.589 375.901Z" fill="#3E57BB"/>
<path d="M443.02 296.907C443.02 296.907 393.266 284.705 359.932 312.393C326.598 340.082 364.633 328.363 376.802 332.119C388.97 335.876 407.313 342.916 407.313 342.916C407.313 342.916 458.045 318.95 443.02 296.907Z" fill="#3E57BB"/>
<path d="M496.17 272.829C510.959 276.405 526.389 272.548 541.313 269.567C542.846 269.129 544.469 269.105 546.014 269.5C547.78 270.119 548.96 271.749 549.995 273.313C555.152 281.145 559.447 289.512 562.805 298.268C564.829 303.543 566.73 309.278 571.228 312.697C575.727 316.116 583.757 315.351 585.387 309.942C577.706 288.338 568.248 267.419 558.801 246.524C557.946 244.634 557.002 242.633 555.247 241.519C553.711 240.708 552.002 240.28 550.265 240.271L497.002 235.671C485.036 234.636 467.042 233.051 471.057 249.695C473.824 261.301 484.924 270.107 496.17 272.829Z" fill="#3E3E54"/>
<path d="M509.531 226.787C509.531 230.419 509.531 234.175 507.901 237.437C505.82 241.71 501.333 244.398 496.654 245.489C495.173 245.822 493.67 246.044 492.156 246.153C488.927 246.295 485.692 246.224 482.473 245.939C476.298 245.534 469.292 244.691 465.603 239.72C463.017 236.222 462.792 231.566 462.69 227.214C462.42 215.315 462.364 203.417 462.274 191.518C462.274 184.714 459.519 175.537 460.486 169.026C460.813 166.337 461.86 163.787 463.517 161.645C465.174 159.503 467.379 157.849 469.899 156.857C479.02 152.955 492.268 155.822 498.735 163.256C503.919 169.194 505.921 177.235 507.136 185.029C509.351 198.783 509.52 212.819 509.531 226.787Z" fill="#748EFF"/>
<path d="M489.243 204.114C489.828 213.111 490.143 222.108 490.188 231.105C490.116 233.585 490.236 236.066 490.547 238.527C490.851 240.406 492.054 242.138 492.268 243.914C492.361 244.663 492.338 245.422 492.201 246.164C488.972 246.306 485.737 246.235 482.518 245.95C476.343 245.545 469.337 244.702 465.648 239.731C463.061 236.233 462.837 231.577 462.735 227.225C462.465 215.326 462.409 203.428 462.319 191.529C462.319 184.725 459.564 175.548 460.531 169.036C460.858 166.348 461.905 163.798 463.562 161.656C465.219 159.514 467.424 157.86 469.944 156.868C470.667 157.105 471.367 157.406 472.036 157.768C475.983 159.859 478.964 163.391 481.685 166.945C483.106 168.713 484.314 170.642 485.284 172.691C486.314 175.379 486.95 178.201 487.174 181.07C487.871 186.974 488.433 192.901 488.894 198.839C489.142 202.011 488.298 204.013 491.717 204.62C494.624 205.128 497.563 205.439 500.512 205.553C503.515 205.688 507.068 205.34 508.654 202.787C509.182 201.801 509.415 200.684 509.325 199.569C509.236 198.454 508.827 197.389 508.148 196.5C506.752 194.744 504.859 193.451 502.716 192.789C500.624 192.024 498.42 191.597 496.306 190.888C494.158 190.232 492.175 189.124 490.491 187.638C488.795 186.138 487.727 184.054 487.5 181.801" fill="#617CEF"/>
<path d="M551.919 191.608C552.441 191.859 552.897 192.229 553.25 192.688C553.604 193.147 553.845 193.682 553.954 194.251C553.972 194.44 553.937 194.631 553.853 194.802C553.549 195.319 552.796 195.195 552.2 195.094C548.32 194.397 544.631 197.422 540.684 197.343C538.877 197.297 537.16 196.551 535.893 195.263C534.768 194.06 533.643 191.788 534.273 190.101C534.937 188.166 537.186 188.133 538.94 188.077C543.525 187.907 548.052 189.139 551.919 191.608Z" fill="#F9DDCA"/>
<path d="M534.622 196.601C532.663 197.785 530.481 198.551 528.212 198.851L516.009 201.313C513.331 201.988 510.572 202.291 507.811 202.213C505.304 201.939 502.845 201.33 500.501 200.403C491.031 197.029 476.017 193.059 468.752 185.704C463.253 180.08 464.602 168.947 471.71 166.157C473.063 165.634 474.515 165.418 475.961 165.528C481.989 165.91 486.083 171.454 490.716 175.357C500.658 183.837 514.536 185.31 527.604 186.277H527.874H528.751C532.125 186.525 536.286 187.402 537.209 190.629C537.782 192.912 536.5 195.285 534.622 196.601Z" fill="#748EFF"/>
<path d="M532.608 190.573C531.933 190.837 531.205 190.941 530.483 190.877C522.97 190.877 515.401 190.764 507.99 189.448C500.579 188.133 493.269 185.501 487.421 180.789C483.293 177.415 480.032 173.243 475.893 169.959C474.768 169.025 471.844 167.856 471.698 166.157C473.051 165.633 474.503 165.418 475.949 165.528C481.977 165.91 486.071 171.454 490.705 175.357C500.646 183.837 514.524 185.31 527.592 186.277H527.862C529.516 186.415 531.122 186.901 532.575 187.705C533.025 187.924 533.375 188.306 533.553 188.774C533.627 189.137 533.573 189.514 533.401 189.842C533.229 190.169 532.949 190.428 532.608 190.573Z" fill="#8EA2FF"/>
<path d="M475.77 154.967C475.651 156.048 475.696 157.14 475.905 158.206C476.568 160.849 479.087 162.581 481.584 163.672C483.125 164.347 485.183 164.797 486.296 163.503C487.162 162.502 486.949 160.995 486.679 159.691L485.194 152.594C484.922 151.006 484.489 149.45 483.901 147.95C483.249 146.432 478.941 140.246 476.759 141.821C475.848 142.473 476.231 146.926 476.175 148.04L475.77 154.967Z" fill="#F6D7C2"/>
<path d="M475.994 142.023C476.609 144.956 477.947 147.689 479.886 149.974C481.853 152.265 484.629 153.708 487.634 154C488.73 154.128 489.838 153.912 490.806 153.382C491.994 152.451 492.863 151.174 493.291 149.727C495.844 143.53 498.431 136.715 496.497 130.282C496.011 128.279 494.759 126.547 493.01 125.457C491.138 124.657 489.044 124.542 487.095 125.131C483.721 125.896 478.66 127.65 476.478 130.529C474.296 133.408 475.252 138.863 475.994 142.023Z" fill="#F9DDCA"/>
<path d="M488.377 114.098C485.905 112.988 483.184 112.55 480.488 112.829C477.793 113.107 475.219 114.092 473.026 115.684C470.192 117.809 468.167 120.868 465.277 122.904C462.555 124.827 459.26 125.704 456.212 127.054C455.841 127.211 455.425 127.447 455.358 127.841C455.245 128.448 455.954 128.842 456.235 129.393C456.662 130.237 455.976 131.204 455.335 131.912L451.669 135.916C451.219 136.307 450.914 136.838 450.803 137.423C450.679 138.964 452.861 139.402 454.402 139.267L459.485 138.817C456.496 140.828 453.91 143.38 451.86 146.341C452.985 147.533 455.065 146.971 456.449 146.06C457.832 145.149 459.148 143.811 460.79 143.901C458.327 147.871 466.042 147.713 468.347 147.657C470.306 147.536 472.22 147.015 473.97 146.128C474.81 145.801 475.576 145.307 476.22 144.677C476.543 144.363 476.784 143.973 476.921 143.544C477.059 143.114 477.088 142.657 477.007 142.214C476.879 141.826 476.717 141.449 476.523 141.089C476.201 140.381 476.04 139.61 476.052 138.832C476.064 138.055 476.248 137.289 476.591 136.591C476.703 136.377 476.849 136.141 477.097 136.107C477.298 136.1 477.494 136.168 477.648 136.298L479.346 137.423C479.254 135.141 480.068 132.915 481.61 131.23C483.152 129.544 485.297 128.537 487.578 128.426C491.087 128.235 497.509 129.967 496.665 124.242C495.991 119.946 492.212 115.841 488.377 114.098Z" fill="#333146"/>
<path d="M494 128.37C494.664 128.065 495.226 127.575 495.618 126.957C496.009 126.34 496.212 125.623 496.204 124.892C496.196 124.161 495.976 123.448 495.571 122.84C495.165 122.232 494.593 121.754 493.921 121.465C492.301 120.599 490.468 120.209 488.636 120.34C485.557 120.271 482.503 120.906 479.706 122.196C475.882 124.108 473.116 127.628 469.584 130.068C466.59 131.952 463.302 133.324 459.856 134.128C458.271 134.395 456.77 135.026 455.47 135.972C455.268 136.164 455.065 136.422 455.155 136.681C455.22 136.799 455.313 136.899 455.425 136.973C455.858 137.269 456.349 137.467 456.865 137.555C457.382 137.642 457.911 137.616 458.417 137.479C459.002 137.322 459.541 137.007 460.081 136.805C461.769 136.389 463.533 136.389 465.221 136.805C467.587 137.259 470.024 137.194 472.362 136.613C474.325 135.866 476.209 134.924 477.985 133.802C478.685 133.461 479.457 133.299 480.235 133.33C479.64 134.591 479.344 135.973 479.369 137.367L477.67 136.242C477.583 136.176 477.484 136.127 477.377 136.1C477.271 136.073 477.16 136.068 477.052 136.085C476.816 136.085 476.658 136.355 476.546 136.568C476.206 137.268 476.024 138.033 476.012 138.81C476 139.588 476.159 140.358 476.478 141.067C476.673 141.425 476.831 141.802 476.951 142.192C477.041 142.633 477.018 143.091 476.884 143.521C476.751 143.952 476.51 144.342 476.186 144.655C475.533 145.277 474.77 145.772 473.937 146.117C472.183 146.995 470.271 147.511 468.313 147.635C466.064 147.635 458.315 147.849 460.767 143.879C459.125 143.879 457.731 145.194 456.426 146.038C455.122 146.881 453.052 147.5 451.838 146.319C453.885 143.355 456.471 140.803 459.463 138.795L454.379 139.245C452.827 139.38 450.657 138.941 450.78 137.401C450.892 136.818 451.192 136.288 451.635 135.894L455.313 131.89C455.954 131.181 456.64 130.214 456.212 129.371C455.931 128.82 455.223 128.415 455.335 127.819C455.403 127.414 455.819 127.189 456.19 127.02C459.226 125.682 462.533 124.771 465.254 122.893C468.156 120.857 470.18 117.776 473.003 115.673C475.193 114.075 477.767 113.085 480.464 112.805C483.16 112.524 485.883 112.963 488.354 114.076C492.178 115.864 495.968 119.924 496.598 124.198C497.014 126.975 495.788 128.01 494 128.37Z" fill="#36384D"/>
</svg>
