<svg width="1024" height="576" viewBox="0 0 1024 576" fill="none" xmlns="http://www.w3.org/2000/svg">
<rect width="1024" height="576" fill="#5D77E8"/>
<path d="M396.828 191.297C423.716 187.393 451.401 190.082 478.061 184.724C505.945 179.118 531.34 165.006 558.218 155.635C585.097 146.264 616.138 142.051 641.075 155.784C656.342 164.2 667.575 178.45 676.388 193.528C693.76 223.262 703.175 256.97 703.725 291.402C703.974 308.471 701.992 325.66 696.754 341.913C679.247 396.228 626.256 433.822 570.378 445.414C509.012 458.151 442.289 442.625 392.735 404.274C350.539 371.56 308.813 313.232 323.123 260.102C332.614 224.768 356.515 197.153 396.828 191.297Z" fill="#7A8FEC"/>
<path d="M642.649 323.84L600.879 354.752C599.991 355.409 598.878 355.686 597.785 355.523C596.692 355.36 595.709 354.77 595.05 353.883L577.726 330.471C577.399 330.034 577.168 329.534 577.046 329.003C576.843 328.204 576.882 327.363 577.158 326.587C577.434 325.81 577.934 325.133 578.595 324.641L620.378 293.729C620.872 293.366 621.439 293.115 622.04 292.996C622.641 292.876 623.261 292.89 623.857 293.036C624.795 293.275 625.624 293.826 626.207 294.599L643.532 318.024C643.856 318.464 644.09 318.963 644.221 319.494C644.352 320.024 644.377 320.575 644.295 321.115C644.213 321.655 644.026 322.174 643.743 322.641C643.461 323.109 643.089 323.516 642.649 323.84Z" fill="#4D62BF"/>
<path d="M623.857 293.036L616.125 327.767L577.046 329.003C576.843 328.204 576.882 327.363 577.158 326.587C577.434 325.81 577.934 325.133 578.595 324.641L620.378 293.729C620.872 293.366 621.439 293.115 622.04 292.996C622.641 292.876 623.261 292.89 623.857 293.036Z" fill="#9BA8EC"/>
<path d="M602.102 328.215L603.379 352.891L642.648 323.84L618.883 315.347L616.124 327.767L602.102 328.215Z" fill="#405BB2"/>
<path d="M569.546 385.638C568.302 387.753 567.532 390.113 567.29 392.554C567.332 394.998 568.124 397.37 569.559 399.348C572.508 403.723 577.029 406.794 582.182 407.922C582.857 408.129 583.582 408.096 584.234 407.827C584.681 407.553 585.028 407.144 585.226 406.659C586.463 404.145 585.96 401.156 585.145 398.506C584.329 395.856 583.215 393.166 583.337 390.353C583.541 385.095 591.055 374.944 582.305 372.471C575.008 370.352 571.869 380.95 569.546 385.638Z" fill="#FFCFC3"/>
<path d="M564.409 392.5C564.409 392.5 561.827 394.62 562.317 396.957C562.806 399.294 572.086 415.586 585.307 413.724C598.528 411.863 576.815 398.778 576.815 398.778L564.409 392.5Z" fill="#687EE1"/>
<path d="M568.404 386.48C568.946 386.5 569.462 386.714 569.859 387.083C570.256 387.453 570.506 387.952 570.564 388.491C570.909 390.043 571.644 391.482 572.7 392.67C573.756 393.859 575.097 394.759 576.597 395.285C580.049 396.223 583.201 393.342 584.75 394.157C586.299 394.973 590.647 406.319 589.506 409.552C588.365 412.786 583.011 412.705 578.255 410.49C573.499 408.275 564.83 399.43 564.165 395.937C563.499 392.445 566.515 387.418 568.404 386.48Z" fill="white"/>
<path d="M513.481 404.43C512.199 406.841 511.457 409.502 511.307 412.229C511.493 414.92 512.488 417.491 514.16 419.607C517.65 424.337 522.828 427.539 528.618 428.548C529.375 428.748 530.178 428.676 530.887 428.344C531.365 428.005 531.734 427.532 531.947 426.986C533.197 424.132 532.477 420.83 531.458 417.895C530.438 414.96 529.08 412.066 529.025 408.968C529.025 403.125 536.866 391.453 527.028 389.13C518.807 387.187 515.818 399.117 513.481 404.43Z" fill="#FFCFC3"/>
<path d="M508.087 412.406C508.087 412.406 505.37 414.892 505.981 417.46C506.593 420.029 517.708 437.706 532.328 434.989C546.949 432.271 522.192 418.887 522.192 418.887L508.087 412.406Z" fill="#687EE1"/>
<path d="M512.231 405.449C512.839 405.443 513.428 405.657 513.89 406.051C514.353 406.446 514.656 406.995 514.745 407.596C515.199 409.3 516.084 410.859 517.314 412.122C518.544 413.386 520.078 414.312 521.77 414.811C525.656 415.681 529.039 412.352 530.751 413.167C532.463 413.982 537.899 426.415 536.757 430.043C535.616 433.671 529.678 433.861 524.283 431.633C518.889 429.405 508.82 419.975 507.978 416.129C507.135 412.284 510.179 406.591 512.231 405.449Z" fill="white"/>
<path d="M542.79 262.722C543.16 262.786 543.523 262.882 543.877 263.007C552.465 266.268 562.805 280.807 568.648 287.71C576.243 296.452 582.565 306.223 587.426 316.734C597.291 338.76 598.202 366.126 584.342 385.882L573.689 383.654C572.759 383.551 571.882 383.167 571.175 382.553C570.812 382.021 570.56 381.419 570.437 380.786C570.313 380.153 570.319 379.502 570.455 378.871C571.018 371.261 570.667 363.611 569.409 356.084C568.706 350.926 567.125 345.926 564.735 341.3C561.392 335.281 556.12 330.62 550.984 326.055C534.678 311.611 520.057 296.678 511.973 276.255C519.269 272.668 534.923 261.336 542.79 262.722Z" fill="#473F47"/>
<path d="M518.115 273.809C518.466 273.949 518.8 274.132 519.107 274.353C526.702 279.516 533.374 296.093 537.45 304.137C542.789 314.416 546.659 325.394 548.946 336.748C553.389 360.459 547.913 387.282 529.828 403.329L519.976 398.669C519.099 398.351 518.338 397.779 517.789 397.024C517.56 396.419 517.457 395.773 517.485 395.126C517.513 394.479 517.672 393.845 517.952 393.261C520.276 385.991 521.717 378.468 522.246 370.854C522.766 365.675 522.394 360.444 521.145 355.391C519.311 348.774 515.261 343.013 511.334 337.36C498.901 319.533 488.113 301.583 485.015 279.842C492.936 278.049 510.805 270.684 518.115 273.809Z" fill="#473F47"/>
<path d="M562.371 222.053C562.377 222.112 562.377 222.171 562.371 222.23C562.493 224.499 563.24 226.496 562.656 228.806C562.031 231.374 559.64 233.698 557.031 233.318C554.857 233.005 553.375 231.048 551.704 229.622C549.955 228.221 548.015 227.077 545.943 226.225C543.225 224.961 540.426 223.779 537.627 222.692C535.833 221.985 532.409 221.55 531.648 219.716C530.887 217.882 531.132 214.987 530.915 213.044L527.531 182.213L559.014 208.03C560.306 210.854 561.312 213.799 562.017 216.822C562.318 218.548 562.436 220.302 562.371 222.053Z" fill="#F5F5FF"/>
<path d="M539 225.45C539.19 227.271 539.611 229.078 539.829 230.885C540.97 240.927 539.734 251.566 543.81 261.091C544.734 263.211 545.93 265.467 545.386 267.722C544.722 269.634 543.384 271.238 541.622 272.233C533.307 278.049 523.211 280.644 513.373 283.104C505.968 284.979 495.546 288.389 488.154 285.101C485.002 283.742 483.643 280.59 482.352 277.492C478.276 267.627 476.129 256.757 474.199 246.24C473.955 244.881 473.696 243.522 473.465 242.095C471.862 232.611 470.607 223.045 469.702 213.398C469.076 206.386 468.791 198.777 472.786 193.016C478.085 185.325 489.309 179.428 498.046 176.71C500.871 175.801 503.815 175.311 506.783 175.256C511.011 175.454 515.175 176.373 519.094 177.974C523.754 179.672 527.899 181.086 530.548 185.216C533.486 190.015 535.736 195.202 537.233 200.625C538.643 205.704 539.343 210.953 539.312 216.224C539.312 218.806 538.959 221.415 538.973 223.983C538.93 224.471 538.939 224.963 539 225.45Z" fill="#F5F5FF"/>
<path opacity="0.1" d="M504.215 286.867C501.388 288.049 494.377 286.106 492.108 285.957C490.749 285.875 489.39 285.332 488.031 285.169C481.237 284.231 478.343 265.616 477.161 260.711C473.982 247.598 469.824 234.119 468.166 220.803C467.541 215.653 467.092 210.394 468.247 205.353C469.402 200.312 472.324 195.448 477.012 193.124C485.164 189.129 490.667 215.748 492.447 221.183C494.676 227.977 496.918 234.771 499.133 241.565C500.111 244.609 500.424 247.992 502.095 250.778C504.636 255.004 506.783 254.202 511.036 253.495C519.963 251.946 528.306 248.155 537.097 246.036C537.459 245.9 537.844 245.84 538.23 245.859C538.615 245.878 538.993 245.975 539.339 246.144C539.813 246.534 540.135 247.077 540.25 247.68C540.768 249.396 541.051 251.174 541.092 252.965C541.144 253.478 541.069 253.996 540.875 254.474C540.568 254.961 540.143 255.363 539.638 255.642C533.696 259.573 527.171 262.54 520.303 264.434C514.868 265.955 509.718 268.51 506.049 273.048C502.747 277.125 507.041 281.419 505.247 285.835C505.154 286.067 505.014 286.279 504.836 286.456C504.659 286.634 504.447 286.774 504.215 286.867Z" fill="#020202"/>
<path d="M498.019 266.336L550.115 248.767L588.324 270.562L535.154 292.357L498.019 266.336Z" fill="#68E1FD"/>
<path d="M498.019 266.336L550.115 248.767L588.324 270.562L535.154 292.357L498.019 266.336Z" fill="#334688"/>
<path d="M500.165 263.523L552.261 245.954L590.47 267.749L537.301 289.544L500.165 263.523Z" fill="#4B61B7"/>
<path d="M539.856 286.541L582.957 267.505L561.923 255.955L519.066 272.179L539.856 286.541Z" fill="#405BB2"/>
<path d="M537.301 289.544H588.677L632.905 262.001L590.47 267.749L537.301 289.544Z" fill="#4B61B7"/>
<path d="M519.773 163.299C519.243 165.215 518.672 167.131 518.061 169.033C516.702 173.381 513.985 177.349 509.256 178.395C508.211 178.596 507.153 178.723 506.09 178.776C505.886 178.776 505.655 178.776 505.383 178.776C505.369 178.783 505.352 178.786 505.336 178.786C505.319 178.786 505.303 178.783 505.288 178.776H505.166C504.635 178.751 504.104 178.806 503.59 178.939C503.446 178.946 503.306 178.988 503.182 179.061C501.823 179.686 501.932 181.887 502.027 183.137C502.362 184.544 502.199 186.023 501.565 187.322C501.565 187.322 501.565 187.404 501.484 187.458C501.107 187.869 500.652 188.201 500.146 188.434C499.64 188.667 499.092 188.798 498.535 188.817C496.192 189.006 493.865 188.297 492.026 186.833C490.974 185.856 490.129 184.678 489.54 183.368C489.356 182.996 489.201 182.61 489.078 182.213C488.924 181.541 488.864 180.85 488.901 180.161C488.926 179.105 489.026 178.051 489.2 177.009C489.701 174.952 490.096 172.87 490.382 170.772C490.4 169.709 490.473 168.648 490.6 167.593C490.774 166.918 490.901 166.233 490.98 165.541C490.98 163.543 489.961 161.614 489.948 159.589C489.929 157.587 490.116 155.588 490.505 153.624C491.23 149.728 492.926 146.078 495.437 143.012C500.098 137.577 508.359 134.859 514.854 137.957C518.1 139.506 520.618 142.253 521.879 145.621C524.053 151.342 521.336 157.714 519.773 163.299Z" fill="#FFCFC3"/>
<path d="M513.006 261.39C514.147 261.254 515.302 261.132 516.443 261.037C517.124 260.941 517.817 260.983 518.482 261.159C518.808 261.244 519.106 261.415 519.345 261.654C519.584 261.893 519.755 262.191 519.84 262.518C519.833 262.766 519.884 263.013 519.99 263.238C520.164 263.439 520.405 263.57 520.669 263.605C524.746 264.665 528.958 266.322 531.39 269.679C531.68 269.996 531.882 270.384 531.977 270.803C532.072 271.222 532.057 271.658 531.934 272.07C531.377 273.211 529.746 273.048 528.523 272.709C528.698 272.96 528.792 273.259 528.792 273.565C528.792 273.871 528.698 274.17 528.523 274.421C528.34 274.667 528.099 274.865 527.822 274.998C527.545 275.131 527.24 275.194 526.933 275.182C526.529 275.107 526.115 275.107 525.71 275.182C525.433 275.311 525.177 275.48 524.949 275.684C524.377 276.063 523.734 276.32 523.059 276.442C522.384 276.563 521.691 276.546 521.023 276.391C519.664 276.187 518.305 275.725 516.946 275.617C514.84 275.453 512.951 276.146 510.995 275.29C508.837 274.222 506.555 273.428 504.201 272.926C503.452 272.806 502.761 272.449 502.23 271.907C502.002 271.447 501.883 270.94 501.883 270.426C501.883 269.912 502.002 269.405 502.23 268.945C502.582 267.278 503.216 265.683 504.106 264.23C505.261 262.599 507.19 262.314 509.079 261.988C510.465 261.757 511.701 261.58 513.006 261.39Z" fill="#FFCFC3"/>
<path d="M472.758 193.002C462.771 209.538 452.906 228.697 450.067 247.965C449.319 253.033 448.912 259.012 451.289 263.768C455.176 271.513 468.397 273.021 476.006 273.795C485.118 274.719 494.293 274.842 503.426 274.162C503.626 274.2 503.832 274.188 504.026 274.127C504.22 274.066 504.396 273.959 504.539 273.813C504.681 273.668 504.786 273.49 504.843 273.295C504.9 273.1 504.908 272.894 504.867 272.695L505.247 263.903C505.31 263.493 505.253 263.073 505.084 262.694C504.846 262.417 504.546 262.2 504.208 262.061C503.871 261.922 503.505 261.864 503.141 261.892C497.819 261.466 492.589 260.253 487.624 258.292C482.909 256.416 473.696 251.498 474.362 245.302C474.729 241.823 478.547 237.584 480.436 234.839C484.974 228.249 489.866 221.862 494.866 215.612C494.866 215.612 495.355 180.052 472.758 193.002Z" fill="#F5F5FF"/>
<path d="M518.21 155.309C518.885 155.153 519.52 154.855 520.073 154.436C520.626 154.017 521.083 153.486 521.416 152.877C521.973 154.44 524.609 153.964 525.275 152.429C525.941 150.893 525.275 149.154 524.677 147.618C525.302 147.471 525.879 147.171 526.358 146.745C526.837 146.319 527.203 145.78 527.421 145.177C527.64 144.574 527.704 143.926 527.61 143.292C527.515 142.658 527.264 142.057 526.879 141.545C526.43 141.042 525.805 140.607 525.683 139.928C525.654 139.41 525.732 138.892 525.914 138.406C525.999 137.608 525.871 136.802 525.544 136.07C525.217 135.337 524.703 134.704 524.052 134.234C522.717 133.313 521.225 132.641 519.65 132.25C520.073 131.563 520.23 130.744 520.093 129.949C519.955 129.153 519.532 128.435 518.903 127.929C517.614 126.946 516.052 126.386 514.432 126.326C512.081 126.068 509.486 126.177 507.638 127.685C506.376 126.902 504.889 126.562 503.412 126.72C501.936 126.877 500.554 127.523 499.485 128.555C499.106 129.081 498.575 129.479 497.964 129.696C497.526 129.727 497.088 129.653 496.686 129.479C494.973 128.746 493.077 128.552 491.251 128.921C490.338 129.139 489.54 129.691 489.014 130.468C488.489 131.246 488.273 132.192 488.411 133.12C487.737 133.201 487.103 133.487 486.595 133.939C486.087 134.39 485.73 134.987 485.571 135.647C485.54 136.062 485.41 136.463 485.191 136.816C484.797 137.278 484.104 137.251 483.52 137.305C482.405 137.402 481.368 137.916 480.616 138.744C479.864 139.572 479.452 140.654 479.462 141.773C479.472 142.891 479.904 143.965 480.672 144.779C481.439 145.593 482.485 146.088 483.601 146.164C483.473 146.71 483.458 147.277 483.559 147.829C483.659 148.381 483.873 148.906 484.185 149.371C484.906 150.526 485.87 150.608 486.821 151.328C487.379 151.763 487.161 151.803 487.134 152.687C487.107 153.499 487.147 154.313 487.256 155.119C487.442 156.671 487.83 158.192 488.411 159.644C488.819 160.69 489.335 161.695 489.702 162.755C490.208 164.379 490.544 166.05 490.708 167.742L493.004 161.247C493.03 161.158 493.03 161.064 493.004 160.975C492.958 160.855 492.871 160.754 492.759 160.69C491.758 159.91 491.053 158.811 490.762 157.575C490.47 156.34 490.609 155.042 491.156 153.896C491.309 153.537 491.551 153.223 491.861 152.985C492.17 152.747 492.536 152.593 492.922 152.537C493.846 152.537 494.553 153.339 495.001 154.141C495.479 154.995 495.84 155.909 496.075 156.858C496.697 155.371 497.555 153.995 498.616 152.782C499.064 152.279 499.608 151.423 500.328 151.681C501.048 151.939 501.388 153.244 501.687 153.719C502.757 153.303 503.732 152.674 504.554 151.871C504.459 152.814 504.637 153.765 505.065 154.61C505.494 155.455 506.156 156.16 506.972 156.641C508.684 157.442 511.171 156.301 511.171 154.399C511.171 155.255 514.88 153.814 515.152 153.651C515.439 154.201 515.883 154.652 516.428 154.947C516.972 155.243 517.593 155.369 518.21 155.309Z" fill="#473F47"/>
<path d="M500.287 178.843C501.381 178.987 502.486 179.032 503.589 178.979C503.445 178.987 503.305 179.029 503.181 179.101C501.822 179.726 501.931 181.928 502.026 183.178C502.361 184.584 502.198 186.063 501.564 187.363C501.141 187.366 500.72 187.307 500.314 187.186C499.899 187.04 499.515 186.813 499.186 186.52C497.954 185.506 497.053 184.147 496.597 182.617C496.142 181.087 496.154 179.456 496.632 177.933C497.808 178.385 499.036 178.691 500.287 178.843Z" fill="#F5C3B6"/>
<path d="M554.136 204.049C554.136 204.049 579.016 222.406 575.578 240.736C572.385 257.789 569.518 271.35 569.518 271.35L557.873 264.556C557.873 264.556 565.659 238.861 549.407 227.692C533.156 216.523 554.136 204.049 554.136 204.049Z" fill="#F5F5FF"/>
<path d="M555.808 264.298L554.694 270.073C554.497 270.804 554.47 271.571 554.612 272.315C554.687 272.686 554.885 273.022 555.173 273.268C555.461 273.514 555.823 273.657 556.202 273.673C557.017 273.673 557.71 272.777 558.525 272.94C558.816 273.026 559.092 273.159 559.341 273.334C561.08 274.285 563.186 273.334 565.02 272.478C565.313 272.313 565.653 272.251 565.985 272.301C566.379 272.41 566.624 272.804 566.963 273.048C567.303 273.253 567.696 273.349 568.092 273.325C568.487 273.301 568.866 273.157 569.178 272.913C569.794 272.401 570.263 271.735 570.537 270.983C571.269 269.376 571.586 267.611 571.46 265.85C571.334 264.089 570.769 262.388 569.817 260.901C568.774 259.612 567.405 258.627 565.851 258.048C564.297 257.47 562.616 257.319 560.985 257.613C557.452 258.17 556.446 260.942 555.808 264.298Z" fill="#FFCFC3"/>
<path d="M535.154 292.357H586.53L630.759 264.814L588.324 270.562L535.154 292.357Z" fill="#4B61B7"/>
<path d="M537.301 289.544L535.154 292.357H586.53L588.677 289.544H537.301Z" fill="#334688"/>
<path d="M632.906 262.001L630.759 264.814L586.53 292.357L588.677 289.544L632.906 262.001Z" fill="#68E1FD"/>
<path d="M632.906 262.001L630.759 264.814L586.53 292.357L588.677 289.544L632.906 262.001Z" fill="#334688"/>
<path d="M590.987 268.972L626.125 264.067L589.478 286.541L549.489 287.234L590.987 268.972Z" fill="#FEFEFE"/>
<path d="M531.118 265.928L551.011 258.55L541.418 251.539L521.009 258.55L531.118 265.928Z" fill="#405BB2"/>
<path d="M488.548 341.98L409.615 378.015C407.936 378.78 406.021 378.848 404.292 378.204C402.562 377.559 401.159 376.255 400.389 374.577L380.198 330.335C379.811 329.514 379.603 328.62 379.586 327.713C379.534 326.333 379.893 324.97 380.619 323.796C381.346 322.622 382.405 321.692 383.662 321.123L462.595 285.087C463.53 284.667 464.547 284.456 465.573 284.47C466.599 284.484 467.609 284.723 468.533 285.169C469.986 285.871 471.149 287.058 471.821 288.525L491.985 332.781C492.364 333.611 492.575 334.507 492.607 335.418C492.639 336.33 492.491 337.238 492.172 338.093C491.853 338.947 491.368 339.73 490.746 340.397C490.125 341.064 489.377 341.602 488.548 341.98Z" fill="#68E1FD"/>
<path d="M488.548 341.98L409.615 378.015C407.936 378.78 406.021 378.848 404.292 378.204C402.562 377.559 401.159 376.255 400.389 374.577L380.198 330.335C379.811 329.514 379.603 328.62 379.586 327.713C379.534 326.333 379.893 324.97 380.619 323.796C381.346 322.622 382.405 321.692 383.662 321.123L462.595 285.087C463.53 284.667 464.547 284.456 465.573 284.47C466.599 284.484 467.609 284.723 468.533 285.169C469.986 285.871 471.149 287.058 471.821 288.525L491.985 332.781C492.364 333.611 492.575 334.507 492.607 335.418C492.639 336.33 492.491 337.238 492.172 338.093C491.853 338.947 491.368 339.73 490.746 340.397C490.125 341.064 489.377 341.602 488.548 341.98Z" fill="#21379A"/>
<path d="M492.202 340.39L413.27 376.425C411.59 377.191 409.676 377.258 407.946 376.614C406.217 375.969 404.813 374.665 404.044 372.988L383.852 328.759C383.471 327.935 383.258 327.043 383.227 326.136C383.177 324.756 383.538 323.392 384.264 322.216C384.989 321.041 386.047 320.107 387.304 319.533L466.236 283.511C467.914 282.749 469.826 282.681 471.554 283.322C473.283 283.964 474.687 285.262 475.462 286.935L495.654 331.191C496.032 332.022 496.242 332.919 496.273 333.83C496.304 334.742 496.155 335.652 495.835 336.506C495.514 337.36 495.028 338.143 494.405 338.81C493.782 339.476 493.033 340.013 492.202 340.39Z" fill="#4D62BF"/>
<path d="M472.147 283.511L447.498 337.564L383.227 326.068C383.177 324.688 383.538 323.324 384.264 322.148C384.989 320.973 386.047 320.039 387.304 319.465L466.236 283.443C467.165 283.019 468.177 282.805 469.199 282.817C470.22 282.828 471.227 283.065 472.147 283.511Z" fill="#9BA8EC"/>
<path d="M424.453 333.433L417.999 374.183L492.203 340.322L456.317 318.228L447.498 337.564L424.453 333.433Z" fill="#405BB2"/>
<path d="M661.196 254.324L610.214 244.255C609.678 244.15 609.167 243.939 608.712 243.636C608.257 243.333 607.866 242.943 607.562 242.489C607.258 242.035 607.046 241.525 606.94 240.988C606.833 240.452 606.833 239.9 606.939 239.364L612.578 210.829C612.677 210.294 612.885 209.785 613.19 209.335C613.644 208.644 614.294 208.104 615.056 207.785C615.819 207.466 616.659 207.381 617.47 207.541L668.452 217.61C669.055 217.723 669.626 217.971 670.12 218.336C670.614 218.701 671.019 219.172 671.305 219.716C671.765 220.567 671.918 221.55 671.74 222.501L666.088 251.036C665.984 251.574 665.774 252.085 665.472 252.542C665.169 252.999 664.78 253.391 664.325 253.696C663.871 254.002 663.36 254.215 662.823 254.322C662.286 254.43 661.733 254.431 661.196 254.324Z" fill="#4D62BF"/>
<path d="M671.305 219.689L640.434 237.353L613.258 209.307C613.712 208.617 614.362 208.077 615.124 207.758C615.887 207.438 616.727 207.353 617.538 207.514L668.52 217.582C669.111 217.705 669.668 217.958 670.15 218.322C670.631 218.686 671.026 219.153 671.305 219.689Z" fill="#9BA8EC"/>
<path d="M630.663 227.284L613.284 244.853L661.195 254.324L651.466 231.034L640.433 237.353L630.663 227.284Z" fill="#405BB2"/>
</svg>
