<svg width="167" height="46" viewBox="0 0 167 46" fill="none" xmlns="http://www.w3.org/2000/svg">
<path d="M48.6306 31.4998H60.5826V27.8998H52.8786V14.3398H48.6306V31.4998Z" fill="#2F234F"/>
<path d="M67.6638 29.1C65.9598 29.1 65.0718 27.612 65.0718 25.38C65.0718 23.148 65.9598 21.636 67.6638 21.636C69.3678 21.636 70.2798 23.148 70.2798 25.38C70.2798 27.612 69.3678 29.1 67.6638 29.1ZM67.6878 31.884C71.6478 31.884 74.2398 29.076 74.2398 25.38C74.2398 21.684 71.6478 18.876 67.6878 18.876C63.7518 18.876 61.1118 21.684 61.1118 25.38C61.1118 29.076 63.7518 31.884 67.6878 31.884Z" fill="#2F234F"/>
<path d="M81.0943 35.7478C82.9183 35.7478 84.5263 35.3398 85.6063 34.3798C86.5903 33.4918 87.2383 32.1478 87.2383 30.2998V19.2118H83.4943V20.5318H83.4463C82.7263 19.4998 81.6223 18.8518 79.9903 18.8518C76.9423 18.8518 74.8303 21.3958 74.8303 24.9958C74.8303 28.7638 77.3983 30.8278 80.1583 30.8278C81.6463 30.8278 82.5823 30.2278 83.3023 29.4118H83.3983V30.6358C83.3983 32.1238 82.7023 32.9878 81.0463 32.9878C79.7503 32.9878 79.1023 32.4358 78.8863 31.7878H75.0943C75.4783 34.3558 77.7103 35.7478 81.0943 35.7478ZM81.0703 27.9238C79.6063 27.9238 78.6463 26.7238 78.6463 24.8758C78.6463 23.0038 79.6063 21.8038 81.0703 21.8038C82.7023 21.8038 83.5663 23.1958 83.5663 24.8518C83.5663 26.5798 82.7743 27.9238 81.0703 27.9238Z" fill="#2F234F"/>
<path d="M94.9368 29.1C93.2328 29.1 92.3448 27.612 92.3448 25.38C92.3448 23.148 93.2328 21.636 94.9368 21.636C96.6408 21.636 97.5528 23.148 97.5528 25.38C97.5528 27.612 96.6408 29.1 94.9368 29.1ZM94.9608 31.884C98.9208 31.884 101.513 29.076 101.513 25.38C101.513 21.684 98.9208 18.876 94.9608 18.876C91.0248 18.876 88.3848 21.684 88.3848 25.38C88.3848 29.076 91.0248 31.884 94.9608 31.884Z" fill="#2F234F"/>
<path d="M102.655 31.4998H106.567V19.2118H102.655V31.4998ZM102.655 17.5078H106.567V14.3398H102.655V17.5078Z" fill="#2F234F"/>
<path d="M108.264 35.5558H112.176V30.2278H112.224C112.992 31.2598 114.12 31.8838 115.704 31.8838C118.92 31.8838 121.056 29.3398 121.056 25.3558C121.056 21.6598 119.064 18.8518 115.8 18.8518C114.12 18.8518 112.92 19.5958 112.08 20.6998H112.008V19.2118H108.264V35.5558ZM114.696 28.8598C113.016 28.8598 112.056 27.4918 112.056 25.4998C112.056 23.5078 112.92 21.9958 114.624 21.9958C116.304 21.9958 117.096 23.3878 117.096 25.4998C117.096 27.5878 116.184 28.8598 114.696 28.8598Z" fill="#2F234F"/>
<path d="M127.426 31.8838C130.642 31.8838 133.018 30.4918 133.018 27.8038C133.018 24.6598 130.474 24.1078 128.314 23.7478C126.754 23.4598 125.362 23.3398 125.362 22.4758C125.362 21.7078 126.106 21.3478 127.066 21.3478C128.146 21.3478 128.89 21.6838 129.034 22.7878H132.634C132.442 20.3638 130.57 18.8518 127.09 18.8518C124.186 18.8518 121.786 20.1958 121.786 22.7878C121.786 25.6678 124.066 26.2438 126.202 26.6038C127.834 26.8918 129.322 27.0118 129.322 28.1158C129.322 28.9078 128.578 29.3398 127.402 29.3398C126.106 29.3398 125.29 28.7398 125.146 27.5158H121.45C121.57 30.2278 123.826 31.8838 127.426 31.8838Z" fill="#2F234F"/>
<path d="M138.331 31.8599C140.035 31.8599 141.115 31.1879 142.003 29.9879H142.075V31.4999H145.819V19.2119H141.907V26.0759C141.907 27.5399 141.091 28.5479 139.747 28.5479C138.499 28.5479 137.899 27.8039 137.899 26.4599V19.2119H134.011V27.2759C134.011 30.0119 135.499 31.8599 138.331 31.8599Z" fill="#2F234F"/>
<path d="M147.521 31.4998H151.433V24.6118C151.433 23.1478 152.153 22.1158 153.377 22.1158C154.553 22.1158 155.105 22.8838 155.105 24.2038V31.4998H159.017V24.6118C159.017 23.1478 159.713 22.1158 160.961 22.1158C162.137 22.1158 162.689 22.8838 162.689 24.2038V31.4998H166.601V23.5078C166.601 20.7478 165.209 18.8518 162.425 18.8518C160.841 18.8518 159.521 19.5238 158.561 21.0118H158.513C157.889 19.6918 156.665 18.8518 155.057 18.8518C153.281 18.8518 152.105 19.6918 151.337 20.9638H151.265V19.2118H147.521V31.4998Z" fill="#2F234F"/>
<path fill-rule="evenodd" clip-rule="evenodd" d="M8.65405 6.59787C7.22339 7.59823 5.92969 8.78098 4.80664 10.1124C9.39594 9.68633 15.2265 10.382 21.9957 13.7667C29.2243 17.3809 35.0451 17.5031 39.0961 16.7217C38.7285 15.6088 38.2657 14.5392 37.7176 13.5224C33.0803 14.0115 27.1353 13.3641 20.2069 9.89998C15.8073 7.70018 11.9291 6.79401 8.65405 6.59787ZM35.0087 9.66665C31.3466 5.575 26.0247 3 20.1013 3C18.3618 3 16.674 3.22211 15.065 3.63948C17.2442 4.23409 19.5592 5.10399 21.9957 6.32227C27.0683 8.85853 31.4477 9.67516 35.0087 9.66665ZM39.9622 20.6281C35.0682 21.5945 28.3101 21.396 20.2069 17.3444C12.6313 13.5566 6.60175 13.6043 2.53522 14.508C2.32532 14.5546 2.12036 14.6036 1.92035 14.6546C1.38794 15.8125 0.962952 17.0301 0.65802 18.2945C0.983704 18.2075 1.32025 18.1248 1.66748 18.0476C6.60089 16.9513 13.5714 16.9989 21.9957 21.2111C29.5714 24.9989 35.6009 24.9512 39.6675 24.0475C39.8068 24.0166 39.9441 23.9846 40.0791 23.9516C40.0939 23.6363 40.1013 23.319 40.1013 23C40.1013 22.1975 40.0541 21.406 39.9622 20.6281ZM39.4261 28.1723C34.5796 29.0196 28.0183 28.6944 20.2069 24.7888C12.6313 21.001 6.60175 21.0487 2.53522 21.9524C1.63257 22.1529 0.820557 22.3972 0.104248 22.6551C0.102295 22.7698 0.101318 22.8848 0.101318 23C0.101318 34.0457 9.05561 43 20.1013 43C29.3584 43 37.1466 36.7109 39.4261 28.1723Z" fill="#7F57F1"/>
</svg>
