<svg width="70" height="46" viewBox="0 0 70 46" fill="none" xmlns="http://www.w3.org/2000/svg">
<g clip-path="url(#clip0_1737_1881)">
<path d="M65.5268 6.40859C65.5268 6.45989 65.5268 6.52402 65.5137 6.5625C65.4481 7.06271 65.4481 7.56292 65.4874 8.07596C65.5137 8.20422 65.5399 8.33248 65.6449 8.43509C65.8154 8.62747 66.0777 8.589 66.1827 8.35813C66.2352 8.2427 66.2352 8.12726 66.2089 8.01183C66.0777 7.52444 66.0515 7.01141 66.0384 6.51119C66.0384 6.48554 66.0384 6.44706 66.0384 6.40859C66.1827 6.39576 66.3139 6.38293 66.4319 6.38293C66.5238 6.37011 66.6025 6.35728 66.6681 6.3188C66.8648 6.2162 66.8648 5.99816 66.6549 5.89555C66.5762 5.85707 66.4713 5.84424 66.3795 5.84424C66.0515 5.85707 65.7236 5.85707 65.3956 5.85707C65.2776 5.85707 65.1595 5.8699 65.0414 5.88272C64.9758 5.89555 64.8971 5.89555 64.8447 5.93403C64.7528 5.9725 64.7004 6.03663 64.7004 6.12641C64.7135 6.2162 64.7528 6.2675 64.8447 6.30598C64.8971 6.34446 64.9627 6.35728 65.0283 6.35728C65.1857 6.37011 65.3563 6.39576 65.5268 6.40859ZM69.1342 6.99858C69.1342 7.01141 69.1473 7.02423 69.1473 7.02423C69.1998 7.37053 69.2523 7.70401 69.2916 8.03748C69.3048 8.15291 69.3179 8.25552 69.3966 8.3453C69.5671 8.56334 69.8295 8.53769 69.9475 8.30683C70 8.19139 70.0131 8.07596 69.9869 7.9477C69.9082 7.56292 69.8688 7.17814 69.7901 6.80619C69.7376 6.57532 69.6721 6.35728 69.6065 6.15207C69.5671 6.02381 69.4753 5.93402 69.3179 5.9212C69.1605 5.89555 69.0424 5.9725 68.9768 6.08794C68.8981 6.19054 68.8325 6.29315 68.78 6.40859C68.6882 6.6138 68.6095 6.81902 68.5046 7.01141C68.4914 7.06271 68.4783 7.10119 68.4521 7.13966C68.439 7.11401 68.4259 7.10119 68.4259 7.10119C68.2553 6.78054 68.0979 6.45989 67.9274 6.15207C67.9011 6.12641 67.888 6.10076 67.8749 6.07511C67.7962 5.95968 67.7044 5.89555 67.5601 5.89555C67.4289 5.90837 67.3239 5.98533 67.2584 6.10076C67.2321 6.15207 67.2321 6.19054 67.219 6.24185C67.1665 6.65228 67.1009 7.06271 67.0485 7.47314C67.0222 7.70401 67.0091 7.93487 67.0091 8.16574C66.996 8.21704 67.0091 8.28117 67.0353 8.33248C67.0616 8.43508 67.1403 8.49922 67.2452 8.51204C67.3764 8.52487 67.4682 8.48639 67.5076 8.38378C67.5469 8.30683 67.5601 8.2427 67.5732 8.17857C67.6257 7.9477 67.665 7.72966 67.7044 7.51162C67.7306 7.38336 67.7437 7.28075 67.7831 7.13966C67.8093 7.19097 67.8355 7.22945 67.8618 7.26792C67.9798 7.42184 68.0979 7.57575 68.2422 7.70401C68.3865 7.80661 68.5046 7.79379 68.6226 7.67835C68.6489 7.6527 68.662 7.63988 68.6882 7.61422C68.8063 7.43466 68.9506 7.2551 69.0686 7.07553C69.0949 7.04988 69.108 7.02423 69.1342 6.99858Z" fill="black"/>
<path d="M38.9088 6.66053C38.8176 6.90428 38.8002 7.07989 38.8423 7.22585C38.8888 7.42433 39.0095 7.48931 39.1733 7.43883C40.7141 7.0663 44.0928 8.1237 45.3437 8.41841C45.6387 8.48029 45.8787 8.10794 45.6774 7.7741C45.3836 7.4508 42.0064 6.06663 40.7178 5.99116C40.2127 5.96325 39.3097 5.83661 38.9088 6.66053Z" fill="black"/>
<path d="M52.1133 2.17977C52.2775 2.27244 52.3693 2.36084 52.4146 2.45961C52.4821 2.58917 52.4465 2.67881 52.3331 2.72455C51.3146 3.21057 49.9593 5.30298 49.4122 6.02463C49.2796 6.19064 48.9737 6.09417 48.9275 5.82117C48.937 5.51249 50.1384 3.24176 50.8089 2.62329C51.0724 2.38182 51.5077 1.90803 52.1133 2.17977Z" fill="black"/>
<path d="M44.0022 1.1498C44.1995 1.00442 44.4045 0.953474 44.5092 1.04795C46.0459 2.3329 46.8608 4.36773 47.3654 6.23057C47.3844 6.27397 47.3856 6.33625 47.3704 6.40122C47.3641 6.45675 47.3226 6.51541 47.2567 6.5608C47.1863 6.61091 47.1257 6.62617 47.0972 6.58299C46.4237 5.68732 42.577 2.20242 44.0022 1.1498Z" fill="black"/>
<path d="M11.461 23.4277C11.8293 23.1596 12.2297 22.9364 12.6534 22.7632C13.0967 22.6393 13.5692 22.6598 13.9995 22.8218C14.4297 22.9838 14.7944 23.2783 15.0382 23.6609C15.2563 24.0425 15.3416 24.4831 15.2814 24.9163C15.2212 25.3494 15.0187 25.7517 14.7043 26.0626C14.4606 26.3146 14.1839 26.5341 13.8816 26.7155C12.5342 27.5666 11.1748 28.371 9.81547 29.2221C9.53732 29.4351 9.24225 29.6262 8.93308 29.7934C8.46281 30.0227 7.92537 30.0841 7.41368 29.967C6.902 29.85 6.44826 29.5617 6.13092 29.1522C5.89369 28.8622 5.69348 28.5451 5.53471 28.2078C4.24691 25.5613 2.91142 22.9264 1.67131 20.2332C1.09895 19.0674 0.633913 17.7266 0.180798 16.4325C-0.0152406 16.0565 -0.0535225 15.6206 0.0741037 15.2174C0.20173 14.8142 0.485195 14.4756 0.864201 14.2736C1.24321 14.0716 1.68785 14.0222 2.10357 14.1358C2.51929 14.2494 2.87329 14.5171 3.09027 14.8819C3.75722 15.7485 4.34761 16.669 4.85504 17.6334C6.14284 19.9651 7.37103 22.2968 8.61113 24.5586C8.68334 24.6836 8.76296 24.8042 8.84961 24.92C9.783 24.5363 10.6609 24.0346 11.461 23.4277Z" fill="black"/>
<path d="M24.7761 22.6142C21.8309 25.9835 16.8943 25.1324 14.4141 20.7954C12.6493 17.7175 12.3393 12.6343 16.1789 9.42819C16.9988 8.75696 17.9792 8.29971 19.0287 8.09909C20.3155 7.91872 21.6277 8.14068 22.7777 8.73326C23.9277 9.32584 24.8567 10.2587 25.432 11.3985C27.5306 15.1293 27.2325 19.886 24.7761 22.6142ZM23.5837 14.7562C23.2708 13.8394 22.6431 13.0567 21.807 12.541C21.3339 12.2113 20.759 12.051 20.1792 12.0871C19.5993 12.1232 19.0499 12.3535 18.6233 12.7392C16.9182 14.2199 16.5604 17.7292 17.8005 19.8161C17.9586 20.1564 18.1907 20.4588 18.4808 20.7022C18.7709 20.9456 19.1119 21.1241 19.4799 21.2251C19.8479 21.3262 20.234 21.3474 20.6113 21.2873C20.9886 21.2271 21.3478 21.0871 21.664 20.877C22.5883 20.1763 23.2664 19.2115 23.604 18.1167C23.9417 17.0218 23.9221 15.8513 23.548 14.7679L23.5837 14.7562Z" fill="black"/>
<path d="M36.7956 16.2251C36.4941 16.2885 36.1826 16.2923 35.8795 16.2362C35.5765 16.1801 35.2879 16.0654 35.0309 15.8987C34.806 15.7729 34.6124 15.6 34.464 15.3923C34.3157 15.1846 34.2163 14.9474 34.173 14.6976C34.1296 14.4479 34.1435 14.1919 34.2134 13.948C34.2834 13.7041 34.4079 13.4784 34.5778 13.2871C34.8738 12.9027 35.294 12.6275 35.7702 12.506C37.0135 12.1532 38.2934 11.9381 39.5859 11.8648C39.8699 11.8325 40.1576 11.856 40.4321 11.9339C40.7067 12.0119 40.9625 12.1426 41.1847 12.3186C41.4068 12.4945 41.5908 12.7121 41.7258 12.9585C41.8607 13.2049 41.944 13.4752 41.9707 13.7535C42.3433 15.1205 42.3841 16.5538 42.0899 17.939C41.0168 22.4159 37.3203 23.9548 33.1707 22.5208C32.0059 22.1374 30.9846 21.423 30.2374 20.4689C29.2408 19.3199 28.5342 17.9582 28.1745 16.4933C27.8831 15.1888 27.915 13.8352 28.2677 12.5453C28.6203 11.2554 29.2834 10.0666 30.2016 9.07834C31.073 8.00417 32.204 7.1588 33.4927 6.61835C34.307 6.1795 35.2599 6.05472 36.1637 6.26859C36.3687 6.32407 36.5548 6.43217 36.7027 6.58168C36.8506 6.7312 36.9549 6.91667 37.0048 7.11888C37.0547 7.32108 37.0483 7.53265 36.9864 7.73165C36.9244 7.93064 36.8092 8.10981 36.6526 8.25057C36.3548 8.51412 36.0313 8.74842 35.6867 8.95009C34.6266 9.61016 33.7041 10.4607 32.968 11.4567C32.4855 12.1012 32.1532 12.8413 31.9946 13.6248C31.8359 14.4083 31.8548 15.2163 32.0499 15.992C32.3203 17.0496 32.9204 17.9989 33.7669 18.7084C36.3902 21.0402 39.8005 18.79 39.2043 15.6072C38.3339 15.8171 37.5707 16.0386 36.7956 16.2251Z" fill="black"/>
<path d="M52.8218 22.8007C48.9465 25.1325 44.5346 22.8007 43.5687 17.9041C42.8652 14.4065 44.2007 9.50979 48.875 7.6444C49.8695 7.25605 50.9482 7.1197 52.011 7.248C53.2879 7.47655 54.4593 8.09118 55.3599 9.00525C56.2605 9.91931 56.8451 11.0867 57.031 12.3429C57.818 16.505 56.0294 20.947 52.8218 22.8007ZM54.1693 14.9544C54.1681 13.9859 53.8177 13.0487 53.1796 12.3079C52.8385 11.8497 52.3454 11.5214 51.7844 11.3789C51.2233 11.2365 50.6292 11.2887 50.1031 11.5268C48.0045 12.4128 46.5259 15.6306 47.0625 17.9974C47.1035 18.3688 47.2269 18.727 47.4242 19.0469C47.6215 19.3668 47.8879 19.6407 48.2048 19.8495C48.5216 20.0582 48.8813 20.1968 49.2586 20.2555C49.636 20.3141 50.0219 20.2915 50.3893 20.1892C51.4986 19.8103 52.4591 19.1022 53.1367 18.1637C53.8144 17.2252 54.1754 16.1032 54.1693 14.9544Z" fill="black"/>
<path d="M60.95 23.78C60.8915 24.2067 60.6621 24.5932 60.3121 24.8545C59.9621 25.1157 59.5203 25.2304 59.0839 25.1732C58.6475 25.116 58.2522 24.8916 57.985 24.5494C57.7177 24.2073 57.6005 23.7753 57.659 23.3486C57.7175 22.9219 57.947 22.5354 58.2969 22.2741C58.6469 22.0128 59.0887 21.8982 59.5251 21.9554C59.9615 22.0126 60.3568 22.2369 60.6241 22.5791C60.8913 22.9213 61.0086 23.3533 60.95 23.78ZM59.9126 8.0524C60.1394 7.71375 60.4721 7.45586 60.8611 7.31719C61.25 7.17852 61.6744 7.1665 62.0709 7.28293C62.474 7.38154 62.8301 7.61255 63.0798 7.93728C63.3294 8.26202 63.4573 8.66075 63.4422 9.06671C63.3896 9.71788 63.29 10.3646 63.1441 11.002C62.7506 13.1589 62.369 15.3157 61.9517 17.4493C61.7609 18.3004 61.5105 19.1165 61.2362 19.9792C61.1408 20.2489 60.9814 20.4926 60.7712 20.6904C60.6405 20.8392 60.4736 20.9533 60.2858 21.0222C60.098 21.0912 59.8955 21.1127 59.697 21.0848C59.4985 21.0569 59.3103 20.9805 59.15 20.8627C58.9897 20.7448 58.8624 20.5893 58.7799 20.4106C58.6381 20.09 58.5611 19.7455 58.5533 19.3963C58.5533 17.9506 58.5533 16.4933 58.6487 15.0359C58.8108 12.9561 59.1296 10.8908 59.6026 8.85685C59.6583 8.58435 59.7632 8.32376 59.9126 8.08738V8.0524Z" fill="black"/>
<path fill-rule="evenodd" clip-rule="evenodd" d="M6.42312 33.1489C6.28233 33.4562 6.24372 33.7988 6.31252 34.1285C6.35829 34.5631 6.45882 34.9906 6.61182 35.4012C6.80284 35.904 7.01659 36.4012 7.28015 37.014C7.34076 37.155 7.4041 37.3022 7.47038 37.4571C7.8258 38.2873 8.27176 39.3483 8.86661 40.8838C9.03498 41.32 9.18449 41.7598 9.33505 42.2026C9.39587 42.3815 9.45691 42.561 9.51939 42.7409C9.74335 43.3805 10.1287 43.9551 10.6395 44.4105C10.8564 44.6608 11.1441 44.8432 11.4667 44.9344C11.7956 45.0274 12.1454 45.0215 12.4708 44.9175C12.7962 44.8134 13.082 44.616 13.2911 44.3509C13.4961 44.091 13.618 43.7778 13.6417 43.4506C13.7747 42.8132 13.7293 42.1523 13.5101 41.5378C13.1622 40.5175 12.7659 39.4957 12.3089 38.4963L12.3068 38.4919C11.555 36.9283 10.7908 35.3755 9.99045 33.8221L9.98446 33.8112C9.75016 33.4065 9.44567 33.0447 9.08467 32.7421C8.85031 32.472 8.52704 32.2898 8.17004 32.227C7.80543 32.1629 7.42939 32.2275 7.10905 32.4094C6.80601 32.5786 6.56579 32.8375 6.42312 33.1489Z" fill="black"/>
<path fill-rule="evenodd" clip-rule="evenodd" d="M17.9057 29.2986C16.7269 29.0001 15.4958 28.9566 14.2982 29.1712C13.3706 29.2605 12.4583 29.4697 11.8248 29.8841C11.5026 30.095 11.2421 30.3658 11.0972 30.71C10.9515 31.0561 10.9329 31.4519 11.0523 31.8929C11.2703 32.7007 11.5534 33.4861 11.8355 34.269L11.8812 34.3958L11.8823 34.3986C12.7317 36.673 13.5892 38.9397 14.4545 41.1986C14.5554 41.5546 14.6981 41.898 14.8797 42.2219L14.8831 42.2279C15.123 42.6303 15.4307 42.9902 15.7932 43.2925C15.9745 43.4587 16.1987 43.5737 16.4418 43.6251C16.6873 43.6769 16.9426 43.6619 17.1799 43.5815C17.4173 43.5012 17.6275 43.3587 17.7877 43.1695C17.9453 42.9834 18.0485 42.7592 18.0864 42.5206C18.2428 41.8724 18.1927 41.1929 17.9427 40.5733C17.8647 40.3648 17.8035 40.1517 17.739 39.9274C17.7175 39.8526 17.6957 39.7765 17.6727 39.699C19.6534 38.942 21.7609 37.9241 22.502 35.5561C22.7922 34.7378 22.8164 33.8517 22.5712 33.0193C22.3258 32.186 21.8223 31.4474 21.1301 30.9052C20.188 30.1462 19.0875 29.5978 17.9057 29.2986ZM14.6382 32.2031C14.6772 32.1921 14.7165 32.1819 14.7559 32.1724C16.0454 31.9742 17.3647 32.2383 18.4709 32.9159C18.9584 33.2474 19.1581 33.6157 19.1924 33.9701C19.2278 34.335 19.0921 34.7304 18.8195 35.1105C18.3044 35.8285 17.3644 36.4032 16.5153 36.5103C15.8963 35.1165 15.2677 33.6663 14.6382 32.2031Z" fill="black"/>
<path d="M25.7647 26.7473C27.1685 26.1134 28.9074 26.0039 30.2681 26.4496C30.6108 26.5472 30.9081 26.7583 31.1092 27.0468C31.309 27.3335 31.4012 27.679 31.3704 28.0244C31.3684 28.2486 31.3121 28.4692 31.2062 28.6682C31.0984 28.8708 30.9423 29.045 30.7511 29.1762C30.5599 29.3073 30.3392 29.3916 30.1077 29.4217C29.8761 29.4519 29.6406 29.4271 29.4209 29.3494L29.4042 29.3435L29.3885 29.3354C29.2761 29.2779 29.1567 29.2346 29.0332 29.2064L29.0254 29.2047C28.0682 28.9561 27.1653 29.368 26.8355 29.8741C26.6782 30.1154 26.6587 30.359 26.7897 30.5806C26.93 30.8179 27.2741 31.0842 27.9704 31.274C28.1619 31.3254 28.3582 31.375 28.5573 31.4254C29.1079 31.5648 29.6801 31.7096 30.2334 31.9103L30.2355 31.9111C32.7881 32.8607 33.7386 34.8274 33.4132 36.6772C33.0913 38.5065 31.5288 40.1713 29.1791 40.564C28.3241 40.7493 27.4343 40.7132 26.5978 40.4593C25.7592 40.2046 25.0033 39.7399 24.4052 39.1111L24.3896 39.0947C24.2008 38.8578 24.0738 38.5795 24.0175 38.2842C23.9657 38.0177 23.993 37.7423 24.096 37.4904C24.1984 37.24 24.3716 37.0233 24.5951 36.8654C24.8312 36.6864 25.1158 36.579 25.4137 36.5566C25.7106 36.5343 26.0077 36.5974 26.2684 36.738C26.5288 36.861 26.771 37.0179 26.9884 37.2045L26.9925 37.2079C27.3771 37.5518 27.8424 37.6414 28.2886 37.5584C28.7413 37.4742 29.167 37.2123 29.4408 36.8648C29.7128 36.5195 29.822 36.1093 29.6924 35.7111C29.562 35.31 29.1699 34.8606 28.3084 34.4849C28.0832 34.3914 27.8497 34.316 27.6068 34.2426C27.5413 34.2228 27.4747 34.2031 27.4073 34.1831C27.2277 34.1298 27.0429 34.0749 26.8617 34.0144C26.7369 33.9728 26.6131 33.9334 26.4905 33.8943C26.1554 33.7876 25.8287 33.6836 25.5143 33.5441C24.83 33.3163 24.2388 32.8789 23.8287 32.2966C23.4169 31.712 23.2097 31.0129 23.2379 30.3037C23.2401 28.5754 24.3534 27.3847 25.7647 26.7473Z" fill="black"/>
<path d="M43.5619 26.5632C43.2897 26.4332 42.9887 26.3715 42.6861 26.3836C42.3834 26.3958 42.0886 26.4814 41.8283 26.6329C41.5696 26.7833 41.353 26.9939 41.1978 27.246C41.0555 27.4583 40.957 27.6957 40.9079 27.945C40.8588 28.1941 40.86 28.4501 40.9113 28.6986C40.962 29.018 41.0182 29.3286 41.0737 29.6349C41.1656 30.1418 41.255 30.6373 41.314 31.1425L41.3162 31.1553C41.4505 31.9476 41.5208 32.7489 41.5271 33.5519L41.5277 33.5633C41.5736 34.4305 41.2714 35.2808 40.6859 35.9338L40.6766 35.9454C40.4861 36.1841 40.2314 36.3663 39.9409 36.4716C39.6505 36.5769 39.3359 36.6011 39.0322 36.5415C38.7285 36.4819 38.4478 36.3409 38.2214 36.1342C37.995 35.9275 37.8317 35.6625 37.7502 35.3704C37.5762 34.7547 37.4755 34.1214 37.4499 33.4832L37.7471 28.8569C37.7515 28.7965 37.7565 28.7345 37.7616 28.6719C37.7729 28.5314 37.7845 28.3883 37.7893 28.2548C37.7963 28.0584 37.7903 27.8564 37.7435 27.6652C37.6956 27.4698 37.6045 27.2839 37.4429 27.1256C37.2829 26.9689 37.0669 26.8533 36.7951 26.7746C36.3036 26.6355 35.888 26.6399 35.5417 26.7836C35.1952 26.9273 34.9578 27.1941 34.7898 27.5023C34.6231 27.8079 34.516 28.1697 34.435 28.5321C34.3749 28.801 34.3266 29.0833 34.2807 29.352C34.2648 29.4446 34.2493 29.5355 34.2336 29.6238L34.2332 29.6264C33.9876 31.1 33.9145 32.5962 34.0153 34.086C34.0341 34.8911 34.2058 35.6858 34.5218 36.4295C34.8783 37.3891 35.524 38.2205 36.3737 38.814C37.2252 39.4087 38.2413 39.7364 39.2875 39.7537C40.3337 39.771 41.3606 39.4771 42.2322 38.911C43.1024 38.3457 43.7768 37.5355 44.1662 36.5876C44.7109 35.3801 44.9667 34.0669 44.9139 32.7481C44.8819 31.7853 44.8283 30.8151 44.775 29.8498C44.7488 29.3763 44.7227 28.9038 44.6993 28.4342C44.6875 27.9633 44.5287 27.5072 44.2441 27.1271C44.068 26.8868 43.8336 26.693 43.5619 26.5632Z" fill="black"/>
<path d="M53.196 33.8172C53.1684 33.8515 53.1393 33.887 53.1089 33.9239C52.8875 32.6751 52.6823 31.4267 52.4768 30.1764C52.4031 29.7278 52.329 29.2773 52.2545 28.8281L52.2461 28.778L52.2189 28.7347C52.1676 28.6532 52.1625 28.5733 52.1625 28.4029V28.3832L52.1594 28.3637C52.1038 28.0118 51.941 27.6843 51.6923 27.4241C51.4443 27.1646 51.1222 26.984 50.7679 26.9056C50.4142 26.8203 50.0425 26.8391 49.6996 26.9597C49.3576 27.08 49.0595 27.2962 48.8425 27.5812C48.6621 27.7999 48.5142 28.0425 48.4034 28.3017C48.1519 28.8601 47.8982 29.4199 47.6438 29.9812L47.6394 29.9909C47.0043 31.3922 46.3649 32.8029 45.7441 34.2247L45.7422 34.2293C45.3611 35.1512 45.0465 36.1226 44.733 37.091C44.6704 37.2843 44.6078 37.4775 44.5447 37.6702C44.4315 37.9758 44.382 38.3004 44.399 38.6249C44.3784 38.9154 44.4495 39.2052 44.6029 39.4551C44.7593 39.7101 44.9936 39.9107 45.2727 40.0288C45.5685 40.1556 45.8992 40.1825 46.2125 40.1053C46.5251 40.0282 46.8027 39.8518 47.0016 39.6038C47.2556 39.2983 47.4741 38.9651 47.6523 38.6121C48.1782 37.5603 48.6808 36.4957 49.1811 35.4357C49.3747 35.0257 49.5628 34.6585 49.7768 34.2586C49.7915 34.3079 49.8065 34.356 49.822 34.4042C50.0463 35.3697 50.4249 36.2945 50.9438 37.1447C51.042 37.3248 51.1788 37.4822 51.3448 37.6061C51.5128 37.7315 51.7067 37.8195 51.913 37.8642C52.1193 37.9089 52.3331 37.9091 52.5395 37.8648C52.7456 37.8206 52.9401 37.7325 53.1082 37.6077L53.4409 37.3642L56.0232 35.2375L55.8705 36.189C55.6609 37.4969 55.4529 38.7939 55.2319 40.0912C55.0873 40.6662 55.0875 41.2668 55.2325 41.8416C55.2953 42.1651 55.4553 42.4629 55.6921 42.6971C55.9309 42.9332 56.2367 43.0936 56.5699 43.1576C56.9031 43.2215 57.2483 43.1861 57.5606 43.0558C57.8684 42.9275 58.1302 42.7129 58.3132 42.4394C58.739 41.9229 59.004 41.2976 59.0768 40.6379C59.1864 39.7063 59.3102 38.762 59.4341 37.818C59.5768 36.7299 59.7195 35.6421 59.84 34.5752L59.8404 34.5719C59.9564 33.404 60.0125 32.2313 60.0086 31.0579C60.034 30.6871 59.9396 30.3177 59.7384 30.002C59.5365 29.6852 59.2375 29.4389 58.8841 29.298C58.5165 29.1346 58.105 29.0909 57.7101 29.1735C57.3178 29.2555 56.9627 29.4577 56.6963 29.7506C56.22 30.1813 55.7732 30.6422 55.3587 31.1303L55.3559 31.1336C54.9034 31.6849 54.454 32.247 54.0075 32.8055C53.736 33.145 53.4653 33.4837 53.196 33.8172Z" fill="black"/>
</g>
<defs>
<clipPath id="clip0_1737_1881">
<rect width="70" height="46" fill="white"/>
</clipPath>
</defs>
</svg>
