<svg width="78" height="46" viewBox="0 0 78 46" fill="none" xmlns="http://www.w3.org/2000/svg">
<path d="M18.5147 8C15.4686 8 12.5473 9.21005 10.3934 11.364L3.36396 18.3934C1.21005 20.5473 0 23.4686 0 26.5147C0 32.8579 5.14214 38 11.4853 38C14.5314 38 17.4527 36.7899 19.6066 34.636L24.4689 29.7737C24.4689 29.7736 24.469 29.7738 24.4689 29.7737L38.636 15.6066C39.6647 14.5779 41.0599 14 42.5147 14C44.9503 14 47.0152 15.5874 47.7311 17.7841L52.2022 13.313C50.1625 10.1183 46.586 8 42.5147 8C39.4686 8 36.5473 9.21005 34.3934 11.364L15.364 30.3934C14.3353 31.4221 12.9401 32 11.4853 32C8.45584 32 6 29.5442 6 26.5147C6 25.0599 6.57791 23.6647 7.6066 22.636L14.636 15.6066C15.6647 14.5779 17.0599 14 18.5147 14C20.9504 14 23.0152 15.5875 23.7311 17.7842L28.2023 13.3131C26.1626 10.1184 22.5861 8 18.5147 8Z" fill="#394149"/>
<path d="M39.3636 30.3934C38.3349 31.4221 36.9397 32 35.4849 32C33.0496 32 30.985 30.413 30.2689 28.2167L25.7979 32.6877C27.8377 35.8819 31.4139 38 35.4849 38C38.531 38 41.4524 36.7899 43.6063 34.636L62.6357 15.6066C63.6644 14.5779 65.0596 14 66.5144 14C69.5438 14 71.9996 16.4558 71.9996 19.4853C71.9996 20.9401 71.4218 22.3353 70.3931 23.364L63.3636 30.3934C62.3349 31.4221 60.9397 32 59.4849 32C57.0494 32 54.9847 30.4127 54.2687 28.2162L49.7977 32.6873C51.8374 35.8818 55.4137 38 59.4849 38C62.531 38 65.4523 36.7899 67.6062 34.636L74.6357 27.6066C76.7896 25.4527 77.9996 22.5314 77.9996 19.4853C77.9996 13.1421 72.8576 8 66.5144 8C63.4683 8 60.547 9.21005 58.3931 11.364L39.3636 30.3934Z" fill="#394149"/>
</svg>
